<svg width="19" height="26" viewBox="0 0 19 26" fill="none" xmlns="http://www.w3.org/2000/svg">
<g clip-path="url(#clip0)">
<path d="M8.93953 22.6275C9.08668 22.77 9.29875 22.8563 9.51082 22.8563C9.72289 22.8563 9.93929 22.77 10.0864 22.6275C10.3288 22.3986 12.3803 20.4684 14.4057 17.8688C17.1237 14.384 18.5 11.4001 18.5 8.99917C18.513 6.60256 17.5868 4.34845 15.8902 2.65139C14.1937 0.937054 11.9258 0 9.51082 0C4.54232 0 0.5 4.03322 0.5 8.99053C0.5 14.9626 8.61493 22.3338 8.93953 22.6275ZM2.20089 8.96894C2.20089 4.94436 5.48149 1.67115 9.51515 1.67115C13.5488 1.67115 16.8294 4.94436 16.8294 8.96894C16.8294 10.8215 15.7604 13.2051 13.6527 16.0551C12.0989 18.1581 10.3721 19.9588 9.51515 20.8181C7.52429 18.862 2.20089 13.2267 2.20089 8.96894Z" fill="#007BC2"/>
<path d="M16.2625 21.1597C15.7994 21.1597 15.4229 21.5354 15.4229 21.9974C15.4229 22.9474 13.1031 24.3292 9.4633 24.3292C7.78837 24.3292 6.22165 24.0356 5.0531 23.5001C4.08797 23.0597 3.48638 22.4811 3.48638 21.9931C3.48638 21.5311 3.10985 21.1554 2.64675 21.1554C2.18366 21.1554 1.80713 21.5311 1.80713 21.9931C1.80713 23.1245 2.62511 24.1565 4.10961 24.8992C5.52052 25.6074 7.42483 25.996 9.4633 25.996C11.4931 25.996 13.3888 25.6074 14.7953 24.8992C16.2798 24.1522 17.0978 23.1201 17.0978 21.9931C17.0978 21.7729 17.0113 21.5613 16.8511 21.4015C16.6953 21.2461 16.4833 21.1597 16.2625 21.1597Z" fill="#007BC2"/>
<path d="M13.8561 9.18064C13.8561 8.01041 13.3973 6.90927 12.5577 6.07586C11.7224 5.24244 10.6144 4.7804 9.44585 4.7804C7.01353 4.7804 5.03564 6.75381 5.03564 9.18064C5.03564 11.6075 7.01353 13.5809 9.44585 13.5809C11.8738 13.5809 13.8561 11.6075 13.8561 9.18064ZM12.1552 9.20223C12.1552 10.692 10.939 11.9097 9.44585 11.9097C7.9527 11.9097 6.73221 10.692 6.73221 9.20223C6.73221 7.71245 7.94837 6.49472 9.44585 6.49472C10.9433 6.49472 12.1552 7.70814 12.1552 9.20223Z" fill="#007BC2"/>
</g>
<defs>
<clipPath id="clip0">
<rect width="18" height="26" fill="white" transform="translate(0.5)"/>
</clipPath>
</defs>
</svg>
