<svg width="60" height="60" viewBox="0 0 60 60" fill="none" xmlns="http://www.w3.org/2000/svg">
<g clip-path="url(#clip0)">
<path d="M59.7862 18.7742L54.4057 6.41415C54.0943 5.699 53.3891 5.23682 52.6091 5.23682H7.39117C6.61106 5.23682 5.90587 5.699 5.59459 6.41415L0.213729 18.7747C-0.180059 19.6795 -0.0209788 20.7495 0.619015 21.5005L28.4979 54.2148C28.8707 54.6523 29.4141 54.9033 29.989 54.9034H29.9894C30.5641 54.9034 31.1075 54.6526 31.4804 54.2154L40.854 43.2243C41.1726 42.8508 41.1281 42.2896 40.7544 41.971C40.381 41.6523 39.8197 41.6969 39.5011 42.0705L32.1184 50.7272L43.7575 20.7901H57.6498L42.1026 39.0199C41.7839 39.3935 41.8285 39.9546 42.2021 40.2733C42.5757 40.5919 43.1368 40.5473 43.4555 40.1737L59.3804 21.5008C60.021 20.7497 60.1803 19.6794 59.7862 18.7742ZM57.9505 19.0119H44.8962L53.0662 7.79181L57.9505 19.0119ZM20.1553 30.6051L28.076 50.9784L2.34981 20.79H16.3392L18.781 27.0706C18.9178 27.4224 19.2538 27.6378 19.6098 27.6377C19.7169 27.6377 19.8259 27.6181 19.9318 27.577C20.3894 27.3991 20.6161 26.8839 20.4382 26.4262L18.2469 20.7899H41.8494L30.0482 51.144L21.8124 29.9607C21.6345 29.5031 21.1192 29.2764 20.6616 29.4543C20.2041 29.6322 19.9773 30.1474 20.1553 30.6051ZM33.413 7.01491L35.4469 10.0397C35.6186 10.2949 35.8994 10.4328 36.1854 10.4328C36.356 10.4328 36.5285 10.3837 36.6807 10.2814C37.0882 10.0074 37.1964 9.45504 36.9224 9.0475L35.5556 7.01491H51.4322L43.178 18.3508L39.071 12.243C38.7971 11.8354 38.2447 11.7272 37.8372 12.0013C37.4298 12.2752 37.3215 12.8276 37.5955 13.2351L41.4798 19.0119H18.6166L26.6835 7.01491H33.413ZM16.9185 18.3508L8.66428 7.01491H24.5408L16.9185 18.3508ZM6.97012 7.70907L15.2003 19.0119H2.04979L6.97012 7.70907Z" fill="black"/>
<path d="M13.4944 45.8235C13.0601 45.5469 12.5223 45.5116 12.0555 45.7295L7.45625 47.8759C6.75212 48.2043 6.41286 49.0302 6.68408 49.7557C7.56021 52.0999 9.5538 53.3686 12.6096 53.5269C12.6352 53.5282 12.6608 53.5289 12.6863 53.5289C13.0691 53.5289 13.4425 53.3808 13.7211 53.1164C14.0178 52.8346 14.188 52.4384 14.188 52.0296V47.0877C14.1881 46.5728 13.9287 46.1001 13.4944 45.8235ZM12.41 51.7317C9.58747 51.4982 8.75176 50.1005 8.44522 49.3766L12.41 47.5263V51.7317Z" fill="#007BC2"/>
<path d="M11.6467 40.9387C11.7587 40.4361 11.6085 39.9185 11.2447 39.554L7.65961 35.9613C7.11077 35.4113 6.21888 35.3738 5.62926 35.8759C3.72386 37.4984 3.21035 39.805 4.10283 42.732C4.22232 43.124 4.50112 43.4538 4.86777 43.637C5.07734 43.7417 5.3079 43.7947 5.53894 43.7947C5.71141 43.7947 5.88412 43.7652 6.04842 43.7057L10.6946 42.0217C11.1787 41.8462 11.5347 41.4413 11.6467 40.9387ZM5.72255 41.9325C4.98038 39.1993 6.00954 37.9373 6.58588 37.4025L9.67632 40.4994L5.72255 41.9325Z" fill="#007BC2"/>
<path d="M52.6404 47.8758L48.0411 45.7295C47.5745 45.5117 47.0366 45.5468 46.6021 45.8235C46.1678 46.1 45.9084 46.5726 45.9084 47.0877V52.0296C45.9084 52.4385 46.0787 52.8347 46.3754 53.1164C46.6539 53.3808 47.0273 53.5289 47.4101 53.5289C47.4356 53.5289 47.4612 53.5282 47.4868 53.5269C50.5426 53.3687 52.5363 52.0999 53.4125 49.7556C53.6837 49.0302 53.3445 48.2044 52.6404 47.8758ZM47.6867 51.7317V47.5262L51.6514 49.3764C51.3449 50.1005 50.5092 51.4981 47.6867 51.7317Z" fill="#007BC2"/>
<path d="M54.4674 35.876C53.8776 35.3737 52.9857 35.4113 52.4369 35.9613L48.8519 39.554C48.4881 39.9185 48.3379 40.4362 48.45 40.9388C48.562 41.4414 48.9179 41.8462 49.4022 42.0218L54.0482 43.7056C54.2126 43.7653 54.3853 43.7948 54.5578 43.7948C54.7888 43.7948 55.0194 43.7418 55.229 43.6371C55.5955 43.4539 55.8743 43.124 55.9939 42.7321C56.8863 39.8051 56.3728 37.4984 54.4674 35.876ZM54.3741 41.9325L50.4203 40.4996L53.5107 37.4026C54.087 37.9374 55.1161 39.1992 54.3741 41.9325Z" fill="#007BC2"/>
</g>
<defs>
<clipPath id="clip0">
<rect width="60" height="60" fill="white"/>
</clipPath>
</defs>
</svg>
