<svg width="60" height="60" viewBox="0 0 60 60" fill="none" xmlns="http://www.w3.org/2000/svg">
<path d="M56.8731 35.9436C58.8311 34.5959 60 32.3739 60 30C60 27.6261 58.8311 25.4041 56.8732 24.0564C56.1116 23.5321 55.8472 22.5456 56.2447 21.7107C57.2664 19.5647 57.1678 17.0559 55.9808 15C54.7938 12.9442 52.6706 11.6044 50.3011 11.4161C49.3794 11.3428 48.6572 10.6207 48.5839 9.69902C48.3957 7.32949 47.0559 5.20629 45 4.0193C42.9441 2.8323 40.4353 2.73363 38.2893 3.75539C37.4539 4.15289 36.4678 3.8884 35.9436 3.12691C34.5959 1.16895 32.374 0 30 0C27.626 0 25.4041 1.16895 24.0564 3.1268C23.5321 3.88852 22.5457 4.15277 21.7107 3.75527C19.5647 2.73363 17.0559 2.8323 15 4.01918C12.9441 5.20617 11.6044 7.32949 11.4161 9.69891C11.3428 10.6207 10.6207 11.3428 9.69891 11.4161C7.32938 11.6044 5.20617 12.9442 4.01918 15C2.83219 17.0559 2.73363 19.5647 3.75527 21.7107C4.15277 22.5456 3.8884 23.5321 3.12691 24.0564C1.16895 25.4041 0 27.626 0 30C0 32.374 1.16895 34.5959 3.12691 35.9436C3.88852 36.4679 4.15277 37.4544 3.75527 38.2893C2.73363 40.4353 2.83219 42.9441 4.01918 45C5.20617 47.0559 7.32949 48.3957 9.69891 48.5839C10.6206 48.6572 11.3428 49.3793 11.4161 50.301C11.5062 51.4348 11.8677 52.5456 12.4616 53.5133C12.7148 53.9261 13.2548 54.0553 13.6676 53.802C14.0803 53.5487 14.2095 53.0087 13.9562 52.596C13.5063 51.863 13.2325 51.0214 13.1643 50.1621C13.0223 48.3765 11.6234 46.9775 9.83777 46.8357C8.04375 46.6932 6.43629 45.6792 5.53793 44.1232C4.63957 42.5672 4.56516 40.668 5.33871 39.0431C6.10863 37.4258 5.59664 35.5148 4.12113 34.4992C2.63871 33.4786 1.75371 31.7967 1.75371 30C1.75371 28.2033 2.63883 26.5214 4.12137 25.5009C5.59676 24.4853 6.10875 22.5742 5.33883 20.957C4.56516 19.332 4.63969 17.4329 5.53805 15.8769C6.43641 14.3209 8.04387 13.3069 9.83789 13.1644C11.6235 13.0226 13.0225 11.6236 13.1644 9.83789C13.3069 8.04387 14.3209 6.43641 15.8769 5.53805C17.4329 4.63957 19.332 4.56527 20.957 5.33883C22.5741 6.10863 24.4854 5.59676 25.5009 4.12125C26.5214 2.63883 28.2034 1.75371 30 1.75371C31.7966 1.75371 33.4786 2.63871 34.4991 4.12125C35.5147 5.59676 37.4257 6.10875 39.043 5.33883C40.668 4.56516 42.5672 4.63957 44.1231 5.53805C45.6791 6.43641 46.6931 8.04387 46.8356 9.83801C46.9775 11.6236 48.3765 13.0226 50.1621 13.1644C51.9562 13.3069 53.5637 14.3209 54.4621 15.8769C55.3604 17.4329 55.4348 19.3321 54.6613 20.957C53.8914 22.5742 54.4035 24.4853 55.8789 25.5009C57.3614 26.5214 58.2464 28.2033 58.2464 30C58.2464 31.7967 57.3613 33.4786 55.8789 34.4992C54.4034 35.5148 53.8914 37.4258 54.6613 39.0431C55.435 40.668 55.3604 42.5672 54.4621 44.1232C53.5637 45.6792 51.9562 46.6932 50.1622 46.8357C48.3766 46.9775 46.9777 48.3765 46.8357 50.1622C46.6932 51.9562 45.6792 53.5637 44.1232 54.4621C42.5673 55.3604 40.668 55.435 39.0431 54.6613C37.4259 53.8913 35.5147 54.4035 34.4992 55.8789C33.4787 57.3613 31.7968 58.2464 30.0001 58.2464C28.2034 58.2464 26.5214 57.3614 25.5011 55.8789C24.4854 54.4034 22.5743 53.8914 20.9571 54.6613C19.6096 55.3028 18.0422 55.3661 16.6575 54.8346C16.2057 54.6612 15.6982 54.8869 15.5248 55.3391C15.3512 55.7912 15.5771 56.2984 16.0293 56.4718C17.8604 57.1746 19.9315 57.0919 21.711 56.2447C22.5461 55.8472 23.5323 56.1116 24.0566 56.8732C25.404 58.8311 27.626 60 30 60C32.374 60 34.596 58.8311 35.9436 56.8732C36.4678 56.1115 37.4544 55.8472 38.2893 56.2447C40.4355 57.2665 42.9443 57.1678 45.0001 55.9808C47.0561 54.7938 48.3957 52.6705 48.5841 50.3011C48.6573 49.3793 49.3794 48.6572 50.3012 48.5839C52.6707 48.3957 54.7941 47.0559 55.9809 45C57.1679 42.9441 57.2665 40.4354 56.2448 38.2893C55.8472 37.4544 56.1115 36.4679 56.8731 35.9436Z" fill="black"/>
<path d="M51.1212 29.9731C51.1212 18.3268 41.6463 8.85181 30 8.85181C18.3536 8.85181 8.87866 18.3268 8.87866 29.9731C8.87866 41.6194 18.3536 51.0945 30 51.0945C41.6463 51.0945 51.1212 41.6194 51.1212 29.9731ZM10.6324 29.9731C10.6324 19.2938 19.3207 10.6054 30 10.6054C40.6793 10.6054 49.3675 19.2937 49.3675 29.9731C49.3675 40.6525 40.6793 49.3408 30 49.3408C19.3207 49.3408 10.6324 40.6525 10.6324 29.9731Z" fill="black"/>
<path d="M41.4739 20.1892C39.892 18.7978 37.4729 18.9526 36.0768 20.5399L33.176 23.8918C32.8591 24.258 32.8991 24.8117 33.2653 25.1286C33.6314 25.4455 34.1852 25.4055 34.5021 25.0393L37.3982 21.6927C38.1511 20.8369 39.4598 20.7531 40.3157 21.5059C41.1716 22.2587 41.2554 23.5674 40.4987 24.4277L28.4987 38.2528C28.1062 38.6989 27.5405 38.9547 26.9466 38.9547H26.9331C26.334 38.951 25.7668 38.6878 25.3768 38.2329L19.48 31.353C19.1205 30.9339 18.946 30.3998 18.9884 29.8493C19.0307 29.2987 19.285 28.7976 19.7043 28.4382C20.1234 28.0788 20.6575 27.9042 21.208 27.9466C21.7586 27.989 22.2596 28.2432 22.6191 28.6625L26.3094 32.968C26.4756 33.1618 26.7178 33.2735 26.9732 33.2742H26.9753C27.2298 33.2742 27.4718 33.1637 27.6383 32.9712L31.8268 28.1311C32.1437 27.7649 32.1037 27.2112 31.7375 26.8943C31.3714 26.5774 30.8176 26.6174 30.5007 26.9836L26.9785 31.0537L23.9508 27.5212C23.2866 26.7464 22.3603 26.2765 21.3428 26.1982C20.3249 26.12 19.338 26.4425 18.5631 27.1067C17.7881 27.771 17.3183 28.6972 17.24 29.7148C17.1618 30.7324 17.4845 31.7195 18.1487 32.4943L24.0456 39.3742C24.7663 40.2151 25.8148 40.7014 26.92 40.7083L26.9468 40.7085C28.0447 40.7085 29.0904 40.2356 29.8195 39.4069L41.8197 25.5819C43.2109 23.9999 43.056 21.5807 41.4739 20.1892Z" fill="#007BC2"/>
</svg>
