<svg width="43" height="60" viewBox="0 0 43 60" fill="none" xmlns="http://www.w3.org/2000/svg">
<g clip-path="url(#clip0)">
<path d="M38.2451 49.2432C37.7504 49.2432 37.3572 49.6364 37.3572 50.1311V53.3024C37.3572 53.7971 37.7504 54.1903 38.2451 54.1903C38.7398 54.1903 39.1331 53.7971 39.1331 53.3024V50.1311C39.1331 49.6491 38.7272 49.2432 38.2451 49.2432Z" fill="black"/>
<path d="M16.9599 47.2261H12.3933C11.8986 47.2261 11.5054 47.6193 11.5054 48.114C11.5054 48.6087 11.8986 49.002 12.3933 49.002H16.9599C17.4546 49.002 17.8479 48.6087 17.8479 48.114C17.8479 47.6193 17.4419 47.2261 16.9599 47.2261Z" fill="#007BC2"/>
<path d="M36.6469 39.5392L34.0972 38.9937H34.0846L27.9831 37.6872C28.0211 37.3827 28.0465 37.091 28.0465 36.7865V33.9578C31.7632 31.5857 34.0211 27.4757 34.0211 23.0614V20.7654H32.2452V23.0614C32.2452 29.239 27.2347 34.2368 21.0698 34.2368C14.9049 34.2368 9.89429 29.2263 9.89429 23.0614V20.7654H8.11839V23.0614C8.11839 27.4757 10.3763 31.5857 14.093 33.9578V36.7865C14.093 37.091 14.1184 37.3954 14.1564 37.6872L8.05497 38.9937H8.04228L5.4926 39.5392C2.30867 40.2368 0.012685 43.0783 0 46.3637V59.1121C0 59.6068 0.393235 60.0001 0.887949 60.0001H41.2896C41.7844 60.0001 42.1776 59.6068 42.1776 59.1121V46.3637C42.1649 43.0783 39.8689 40.2368 36.6469 39.5392ZM7.36998 58.2242H1.7759V46.3637C1.78858 43.9155 3.50106 41.7971 5.89852 41.277L7.38266 40.9599V58.2242H7.36998ZM20.2072 58.2242H9.14588V40.5793L14.6258 39.4123C15.5772 41.7464 17.7082 43.3827 20.1945 43.6998V58.2242H20.2072ZM15.8816 36.7865V34.9091C17.518 35.6322 19.2939 36.0001 21.0825 36.0001C22.871 36.0001 24.6469 35.6322 26.2833 34.9091V36.7865C26.2833 39.6533 23.9493 41.9874 21.0825 41.9874C18.2156 41.9874 15.8816 39.6533 15.8816 36.7865ZM33.0317 58.2242H21.9831V43.6998C24.482 43.3827 26.6131 41.7337 27.5518 39.4123L33.0317 40.5793V58.2242ZM40.4017 58.2242H34.8076V40.9599L36.2918 41.277C38.6892 41.7971 40.4017 43.9155 40.4144 46.3637V58.2242H40.4017Z" fill="black"/>
<path d="M6.73585 20.8668H8.1312V20.8795H9.9071V20.8668H32.2581V20.8795H34.0339V20.8668H35.4293C35.924 20.8668 36.3172 20.4736 36.3172 19.9789V16.9345C36.3172 16.4397 35.924 16.0465 35.4293 16.0465H34.7824C34.7063 9.76744 30.3553 4.33827 24.2411 2.90486V0.887949C24.2411 0.393235 23.8479 0 23.3532 0H18.7866C18.2919 0 17.8986 0.393235 17.8986 0.887949V2.90486C11.7972 4.35095 7.45889 9.76744 7.38278 16.0465H6.73585C6.24114 16.0465 5.8479 16.4397 5.8479 16.9345V19.9789C5.8479 20.4736 6.25382 20.8668 6.73585 20.8668ZM24.2538 4.71882C29.3659 6.12685 32.943 10.7442 33.0191 16.0465H28.8204V10.8457C28.8204 10.351 28.4272 9.95772 27.9325 9.95772C27.4378 9.95772 27.0445 10.351 27.0445 10.8457V16.0465H24.2538V4.71882ZM19.6872 1.7759H22.4779V16.0465H19.6872V1.7759ZM17.9113 4.71882V16.0465H15.1206V10.8457C15.1206 10.351 14.7274 9.95772 14.2327 9.95772C13.738 9.95772 13.3447 10.351 13.3447 10.8457V16.0465H9.15868C9.23479 10.7442 12.7993 6.12685 17.9113 4.71882ZM7.6238 17.8224H34.5413V19.0909H7.6238V17.8224Z" fill="#007BC2"/>
</g>
<defs>
<clipPath id="clip0">
<rect width="42.1776" height="60" fill="white"/>
</clipPath>
</defs>
</svg>
