<svg width="60" height="60" viewBox="0 0 60 60" fill="none" xmlns="http://www.w3.org/2000/svg">
<path d="M51.2042 8.79581C45.5372 3.1288 38.0105 0.0125654 29.9937 0C21.9895 0 14.4503 3.11623 8.78325 8.78325C3.11623 14.4503 0 21.9895 0 30.0063C0 38.023 3.11623 45.5497 8.78325 51.2168C14.4503 56.8838 21.9895 60 29.9937 60C37.9979 60 45.5372 56.8838 51.2042 51.2168C56.8712 45.5497 59.9874 38.0105 59.9874 30.0063C60 21.9895 56.8712 14.4628 51.2042 8.79581ZM57.9895 30.0063C57.977 45.4241 45.4115 57.977 29.9937 58.0021C14.5633 57.9895 2.01047 45.4366 2.01047 30.0063C2.01047 14.5759 14.5634 2.01047 30.0063 2.01047C45.4492 2.01047 57.9895 14.5634 57.9895 30.0063Z" fill="black"/>
<path d="M30.0064 6.43359C17.0011 6.43359 6.43359 17.0137 6.43359 30.0064C6.43359 43.0116 17.0137 53.5791 30.0064 53.5791C43.0116 53.5791 53.5791 42.999 53.5791 30.0064C53.5666 23.7111 51.1163 17.7928 46.6681 13.3446C42.22 8.88385 36.3017 6.43359 30.0064 6.43359ZM51.5687 30.0064C51.5561 41.8807 41.8807 51.5561 30.0064 51.5687C18.1195 51.5687 8.44406 41.8933 8.44406 30.0064C8.44406 18.1195 18.1195 8.44406 30.0064 8.44406C41.8933 8.44406 51.5687 18.1069 51.5687 30.0064Z" fill="black"/>
<path d="M30.0061 15.933C31.6647 15.933 33.0092 14.5885 33.0092 12.9299C33.0092 11.2838 31.6647 9.93932 30.0061 9.92676C28.3474 9.92676 27.0029 11.2713 27.0029 12.9299C27.0029 14.5885 28.3474 15.933 30.0061 15.933ZM29.0134 12.9299C29.0134 12.3896 29.4532 11.9372 30.0061 11.9372C30.5589 11.9372 30.9987 12.377 30.9987 12.9299C30.9987 13.4702 30.5589 13.9226 30.0061 13.9226C29.4532 13.9226 29.0134 13.4828 29.0134 12.9299Z" fill="#007BC2"/>
<path d="M30.0061 44.0671C28.3474 44.0671 27.0029 45.4116 27.0029 47.0703C27.0029 48.7289 28.3474 50.0734 30.0061 50.0734C31.6647 50.0734 33.0092 48.7289 33.0092 47.0703C32.9966 45.4242 31.6521 44.0797 30.0061 44.0671ZM30.9862 47.0703C30.9862 47.6106 30.5464 48.0629 29.9935 48.0629C29.4532 48.0629 29.0008 47.6232 29.0008 47.0703C29.0008 46.5174 29.4406 46.0776 29.9935 46.0776C30.5464 46.0776 30.9862 46.53 30.9862 47.0703Z" fill="#007BC2"/>
<path d="M44.0669 30.0063C44.0669 31.665 45.4114 33.0095 47.07 33.0095C48.7287 33.0095 50.0732 31.665 50.0732 30.0063C50.0732 28.3602 48.7287 27.0157 47.07 27.0032C45.4114 27.0032 44.0669 28.3477 44.0669 30.0063ZM46.0774 30.0063C46.0774 29.466 46.5172 29.0136 47.07 29.0136C47.6229 29.0136 48.0627 29.4534 48.0627 30.0063C48.0627 30.5466 47.6229 30.999 47.07 30.999C46.5297 30.9864 46.0774 30.5466 46.0774 30.0063Z" fill="#007BC2"/>
<path d="M31.0115 27.179V18.9989C31.0115 18.446 30.5591 17.9937 30.0062 17.9937C29.4533 17.9937 29.001 18.446 29.001 18.9989V27.179C28.1591 27.4806 27.4806 28.1465 27.179 29.001H18.9989C18.446 29.001 17.9937 29.4533 17.9937 30.0062C17.9937 30.5591 18.446 31.0114 18.9989 31.0114H27.179C27.6062 32.2052 28.7245 33.0093 30.0062 33.0093C30.3204 33.0093 30.6219 32.9591 30.9235 32.8711C32.4942 32.3685 33.3612 30.6722 32.8586 29.1015C32.5696 28.1968 31.8785 27.4931 31.0115 27.179ZM29.0136 30.0062C29.0136 29.4659 29.4533 29.0135 30.0062 29.0135C30.5591 29.0135 30.9989 29.4533 30.9989 30.0062C30.9989 30.5465 30.5591 30.9989 30.0062 30.9989C29.4533 30.9863 29.0136 30.5465 29.0136 30.0062Z" fill="#007BC2"/>
<path d="M12.9299 27.0032C11.2713 27.0032 9.92676 28.3477 9.92676 30.0063C9.92676 31.665 11.2713 33.0095 12.9299 33.0095C14.5885 33.0095 15.933 31.665 15.933 30.0063C15.933 28.3477 14.5885 27.0032 12.9299 27.0032ZM13.9226 30.0063C13.9226 30.5466 13.4828 30.999 12.9299 30.999C12.3896 30.999 11.9372 30.5592 11.9372 30.0063C11.9372 29.4534 12.377 29.0136 12.9299 29.0136C13.4828 29.0136 13.9226 29.4534 13.9226 30.0063Z" fill="#007BC2"/>
</svg>
