<svg width="60" height="60" viewBox="0 0 60 60" fill="none" xmlns="http://www.w3.org/2000/svg">
<g clip-path="url(#clip0)">
<path d="M35.9268 3.375C34.8253 2.83594 33.7589 2.17969 32.7628 1.44141L31.5323 0.527344C30.6065 -0.164062 29.3057 -0.164062 28.38 0.527344L27.1495 1.44141C23.6573 4.05469 19.4854 5.4375 15.1143 5.4375C13.6612 5.4375 12.2081 5.28516 10.7901 4.96875L7.3448 4.21875C6.71198 4.07812 6.05573 4.24219 5.56355 4.67578C5.07136 5.10938 4.81355 5.71875 4.86042 6.375L6.89948 33.7734C7.40339 40.5586 10.6846 46.957 15.9112 51.3398C16.0753 51.4805 16.2745 51.5508 16.4737 51.5508C16.7198 51.5508 16.9776 51.4453 17.1417 51.2344C17.4581 50.8594 17.4112 50.3086 17.0362 49.9922C12.1729 45.9141 9.11433 39.9492 8.64558 33.6445L6.61823 6.22266C6.60652 6.09375 6.67683 6.01172 6.7237 5.97656C6.77058 5.94141 6.85261 5.88281 6.98152 5.90625L10.4268 6.65625C11.962 6.99609 13.5557 7.16016 15.126 7.16016C19.8839 7.16016 24.4073 5.66016 28.2159 2.82422L29.4464 1.91016C29.751 1.67578 30.1846 1.67578 30.501 1.91016L31.7315 2.82422C32.8096 3.63281 33.9698 4.33594 35.1651 4.93359C35.5987 5.14453 36.1261 4.96875 36.337 4.53516C36.5479 4.11328 36.3604 3.58594 35.9268 3.375Z" fill="black"/>
<path d="M46.872 14.4609C46.8955 14.0859 46.7666 13.7109 46.5088 13.4414C46.0752 12.9492 45.4072 13.0312 44.8213 13.0312C39.8877 13.0312 35.0595 11.7305 30.8525 9.25781C30.3252 8.94141 29.6572 8.94141 29.1298 9.25781C24.9228 11.7188 20.083 13.0312 15.1494 13.0312C14.5752 13.0195 13.9072 12.9492 13.4853 13.4414C13.2275 13.7109 13.0869 14.0859 13.122 14.4727L14.2236 29.2969C14.833 29.0273 15.4423 28.5469 15.9463 28.125L14.915 14.7891C14.997 14.7891 15.0791 14.7891 15.1611 14.7891C20.0595 14.7891 24.8759 13.582 29.1298 11.2734V18.1641C29.7158 18.1406 30.3017 18.1172 30.8877 18.1289V11.2969C35.1416 13.582 39.9463 14.7891 44.833 14.7891C44.9267 14.7891 45.0205 14.7891 45.1142 14.7891L44.2236 27.2344C44.7509 27.5977 45.3017 28.3008 45.8994 28.5586L46.872 14.4609Z" fill="black"/>
<path d="M43.1221 36.5859C43.0986 36.6328 42.665 37.8633 42.6416 37.9102C41.376 40.9922 39.1729 43.6523 36.3252 45.4336L30.8643 48.8672V34.2539C30.8643 33.7734 30.4658 33.375 29.9854 33.375C29.5049 33.375 29.1064 33.7734 29.1064 34.2539V48.8672L23.6572 45.4219C20.6455 43.5234 18.2666 40.4414 17.0596 37.1016C16.5557 36.6445 16.2979 35.4609 15.5244 35.6953C15.4307 35.6953 15.0205 36.1289 14.9619 36.1758C14.9854 36.2695 15.1729 36.9375 15.1963 37.0195C16.4385 41.0859 19.1104 44.6367 22.7197 46.9102L29.0127 50.8828C29.3057 51.0703 29.6455 51.1641 29.9854 51.1641C30.3252 51.1641 30.6533 51.0703 30.9463 50.8945L37.2744 46.9336C40.8135 44.7188 43.4736 41.2617 44.751 37.3008C44.7627 37.2539 45.0791 36.2227 45.0908 36.1758C44.3408 36.0938 43.7314 36.1758 43.1221 36.5859Z" fill="black"/>
<path d="M54.3606 4.65254C53.8684 4.23067 53.2239 4.0666 52.5793 4.20723L49.134 4.95723C47.7161 5.27363 46.2512 5.42598 44.7981 5.42598C43.0754 5.42598 41.3762 5.21504 39.7473 4.79317C39.2786 4.67598 38.7981 4.95723 38.6809 5.42598C38.5637 5.89473 38.845 6.3752 39.3137 6.49239C41.095 6.94942 42.9465 7.18379 44.8098 7.18379C46.3918 7.18379 47.9856 7.00801 49.5325 6.66817L52.9778 5.91817C53.1067 5.89473 53.1887 5.9416 53.2356 5.98848C53.2825 6.02363 53.3411 6.10567 53.3411 6.23457L51.3957 33.5744C50.8684 41.0627 46.7551 47.9065 40.3918 51.9025L30.4543 58.1369C30.1731 58.3127 29.7981 58.3127 29.5168 58.1369L20.3762 52.3713C19.9661 52.1135 19.427 52.2307 19.1692 52.6408C18.9114 53.051 19.0286 53.59 19.4387 53.8479L28.5793 59.6135C29.0012 59.883 29.4934 60.0119 29.9856 60.0119C30.4778 60.0119 30.9582 59.883 31.3801 59.6135L41.3176 53.3791C48.1497 49.1018 52.5676 41.7424 53.1418 33.6916L55.0872 6.35176C55.1106 5.69551 54.8645 5.07442 54.3606 4.65254Z" fill="black"/>
<path d="M6.46602 41.0156H4.83711C4.71993 41.0156 4.61446 40.9453 4.5793 40.8281L4.08711 39.2812C4.00508 39.0352 3.65352 39.0352 3.57149 39.2812L3.06758 40.8281C3.03243 40.9336 2.92696 41.0156 2.80977 41.0156H1.19258C0.93477 41.0156 0.829301 41.3437 1.04024 41.4961L2.35274 42.4453C2.44649 42.5156 2.48164 42.6328 2.44649 42.75L1.94258 44.2969C1.86055 44.543 2.1418 44.7539 2.35274 44.6016L3.66524 43.6523C3.75899 43.582 3.88789 43.582 3.98164 43.6523L5.29414 44.6016C5.50508 44.7539 5.78633 44.543 5.7043 44.2969L5.20039 42.75C5.16524 42.6445 5.20039 42.5156 5.29414 42.4453L6.60664 41.4961C6.8293 41.3437 6.72383 41.0156 6.46602 41.0156Z" fill="#007BC2"/>
<path d="M58.7668 41.0156H57.1496C57.0324 41.0156 56.927 40.9453 56.8918 40.8281L56.3879 39.2812C56.3059 39.0352 55.9543 39.0352 55.8723 39.2812L55.3684 40.8281C55.3332 40.9336 55.2277 41.0156 55.1106 41.0156H53.4934C53.2356 41.0156 53.1301 41.3437 53.341 41.4961L54.6535 42.4453C54.7473 42.5156 54.7824 42.6328 54.7473 42.75L54.2434 44.2969C54.1613 44.543 54.4426 44.7539 54.6535 44.6016L55.966 43.6523C56.0598 43.582 56.1887 43.582 56.2824 43.6523L57.5949 44.6016C57.8059 44.7539 58.0871 44.543 58.0051 44.2969L57.5012 42.75C57.466 42.6445 57.5012 42.5156 57.5949 42.4453L58.9074 41.4961C59.1301 41.3437 59.0246 41.0156 58.7668 41.0156Z" fill="#007BC2"/>
<path d="M36.9815 21.9023C36.8408 21.75 36.665 21.6211 36.4775 21.5391L32.6455 20.9648L31.2744 17.6836C31.0518 17.1562 30.5361 16.8047 29.9619 16.8047C29.7744 16.8047 29.5869 16.8398 29.4111 16.9102C29.0596 17.0508 28.79 17.332 28.6494 17.6719L27.2783 20.9531L23.8096 21.4336C23.0244 21.5391 22.4853 22.2656 22.5908 23.0508C22.6377 23.3906 22.8017 23.6953 23.0596 23.918L25.6846 26.25L25.1455 29.9297C25.0517 30.4922 25.3096 31.0547 25.8018 31.3477C26.0244 31.4883 26.2939 31.5703 26.5635 31.5703C26.8564 31.5703 27.126 31.4883 27.3603 31.3242L29.9736 29.543L32.5869 31.3242C32.8213 31.4883 33.1025 31.5703 33.3838 31.5703C33.8525 31.5703 34.2979 31.3359 34.5674 30.9492C34.7666 30.6563 34.8486 30.293 34.8018 29.9414L34.2627 26.2617L36.8877 23.9297C37.4619 23.4023 37.5088 22.4883 36.9815 21.9023ZM32.3643 26.0391L32.8213 29.2734L30.4775 27.6797C30.3252 27.5742 30.1494 27.5156 29.9619 27.5156C29.7744 27.5156 29.5986 27.5742 29.4463 27.668L27.0908 29.25L27.5596 26.0273C27.6064 25.7227 27.4893 25.418 27.2666 25.207L24.958 23.1211L28.04 22.6992C28.3564 22.6523 28.6377 22.4414 28.7666 22.1484L29.9736 19.3008L31.1572 22.1484C31.2861 22.4414 31.5557 22.6641 31.8721 22.6992L34.9658 23.1445L32.6455 25.207C32.4229 25.4297 32.3174 25.7344 32.3643 26.0391Z" fill="#007BC2"/>
<path d="M21.0439 30.2578C20.9502 30.1523 20.8447 30.0703 20.7275 30L17.8564 29.5078L16.9072 27.2227C16.708 26.7539 16.2509 26.4492 15.7353 26.4492C15.5713 26.4492 15.4072 26.4844 15.2431 26.543C14.9384 26.6719 14.6923 26.918 14.5634 27.2227L13.6142 29.5078L11.2119 29.8359C10.5205 29.9297 10.04 30.5742 10.1338 31.2656C10.1806 31.5586 10.3213 31.8398 10.5439 32.0391L12.372 33.668L11.997 36.2344C11.915 36.7383 12.1494 37.2305 12.5713 37.5C12.7705 37.6289 13.0048 37.6992 13.2509 37.6992C13.5088 37.6992 13.7548 37.6172 13.9658 37.4766L15.747 36.2578L17.5283 37.4766C17.7392 37.6172 17.9853 37.6992 18.2431 37.6992C18.665 37.6992 19.0517 37.4883 19.2861 37.1485C19.4619 36.8789 19.5322 36.5625 19.4853 36.2461L19.1103 33.668L20.9384 32.0391C21.4541 31.582 21.5009 30.7734 21.0439 30.2578ZM17.2705 33.457L17.54 35.3203L16.2392 34.4414C16.0869 34.3359 15.9111 34.2891 15.7353 34.2891C15.5595 34.2891 15.3838 34.3477 15.2314 34.4414L13.9189 35.3203L14.1884 33.457C14.2353 33.1641 14.1181 32.8594 13.8955 32.6602L12.5595 31.4531L14.3408 31.207C14.6572 31.1602 14.9267 30.9609 15.0439 30.668L15.7119 29.0742L16.3798 30.668C16.497 30.9609 16.7666 31.1719 17.083 31.207L18.8759 31.4648L17.5634 32.6602C17.3291 32.8594 17.2236 33.1641 17.2705 33.457Z" fill="#007BC2"/>
<path d="M49.5556 30.2578C49.4619 30.1523 49.3564 30.0703 49.2392 30L46.3681 29.5078L45.4189 27.2227C45.2197 26.7539 44.7627 26.4492 44.247 26.4492C44.083 26.4492 43.9189 26.4844 43.7548 26.543C43.4502 26.6719 43.2041 26.918 43.0752 27.2227L42.1259 29.5078L39.7236 29.8359C39.0322 29.9297 38.5517 30.5742 38.6455 31.2656C38.6923 31.5586 38.833 31.8398 39.0556 32.0391L40.8838 33.668L40.5088 36.2344C40.4267 36.7383 40.6611 37.2305 41.083 37.5C41.2822 37.6289 41.5166 37.6992 41.7627 37.6992C42.0205 37.6992 42.2666 37.6172 42.4775 37.4766L44.2587 36.2578L46.04 37.4766C46.2509 37.6172 46.497 37.6992 46.7548 37.6992C47.1767 37.6992 47.5634 37.4883 47.7978 37.1485C47.9736 36.8789 48.0439 36.5625 47.997 36.2461L47.622 33.668L49.4501 32.0391C49.9775 31.582 50.0244 30.7734 49.5556 30.2578ZM45.7939 33.457L46.0634 35.3203L44.7627 34.4414C44.6103 34.3359 44.4345 34.2891 44.2587 34.2891C44.083 34.2891 43.9072 34.3477 43.7548 34.4414L42.4423 35.3203L42.7119 33.457C42.7588 33.1641 42.6416 32.8594 42.4189 32.6602L41.083 31.4531L42.8642 31.207C43.1806 31.1602 43.4502 30.9609 43.5673 30.668L44.2353 29.0742L44.9033 30.668C45.0205 30.9609 45.29 31.1719 45.6064 31.207L47.3994 31.4648L46.0634 32.6602C45.8525 32.8594 45.747 33.1641 45.7939 33.457Z" fill="#007BC2"/>
</g>
<defs>
<clipPath id="clip0">
<rect width="60" height="60" fill="white"/>
</clipPath>
</defs>
</svg>
