<svg width="24" height="22" viewBox="0 0 24 22" fill="none" xmlns="http://www.w3.org/2000/svg">
<g clip-path="url(#clip0)">
<path d="M19.0028 16.0103C17.3527 16.0103 16.0103 17.3553 16.0103 19.0084C16.0103 20.6616 17.3527 22.0066 19.0028 22.0066C20.6528 22.0066 21.9953 20.6616 21.9953 19.0084C21.9953 17.3553 20.6528 16.0103 19.0028 16.0103ZM19.0028 20.2077C18.3426 20.2077 17.8058 19.6698 17.8058 19.0084C17.8058 18.347 18.3426 17.8092 19.0028 17.8092C19.6629 17.8092 20.1998 18.347 20.1998 19.0084C20.1998 19.6698 19.6629 20.2077 19.0028 20.2077Z" fill="black"/>
<path d="M23.8092 4.4226C23.6392 4.20464 23.3786 4.07751 23.1024 4.07751H5.54159L4.73361 0.690466C4.63695 0.285729 4.27573 4.1077e-09 3.86037 4.1077e-09H0.897755C0.401909 -4.69599e-05 0 0.402623 0 0.899408C0 1.39619 0.401909 1.79886 0.897755 1.79886H3.15175L6.06946 14.0303C6.16611 14.4354 6.52733 14.7208 6.9427 14.7208H20.9179C21.3305 14.7208 21.6902 14.439 21.7893 14.0378L23.9738 5.1931C24.0399 4.92451 23.9792 4.64056 23.8092 4.4226ZM20.2155 12.9219H7.65131L5.97069 5.87642H21.9553L20.2155 12.9219Z" fill="black"/>
<path d="M8.13949 16.0103C6.48939 16.0103 5.14697 17.3553 5.14697 19.0084C5.14697 20.6616 6.48943 22.0066 8.13949 22.0066C9.78955 22.0066 11.132 20.6616 11.132 19.0084C11.132 17.3553 9.78955 16.0103 8.13949 16.0103ZM8.13949 20.2077C7.47935 20.2077 6.94248 19.6698 6.94248 19.0084C6.94248 18.347 7.47935 17.8092 8.13949 17.8092C8.79963 17.8092 9.3365 18.347 9.3365 19.0084C9.3365 19.6698 8.79963 20.2077 8.13949 20.2077Z" fill="black"/>
</g>
<defs>
<clipPath id="clip0">
<rect width="24" height="22" fill="white"/>
</clipPath>
</defs>
</svg>
