<svg width="22" height="20" viewBox="0 0 22 20" fill="none" xmlns="http://www.w3.org/2000/svg">
<path d="M17.2697 14.5504C15.7701 14.5504 14.55 15.7728 14.55 17.2752C14.55 18.7776 15.7701 20 17.2697 20C18.7693 20 19.9893 18.7776 19.9893 17.2752C19.9893 15.7728 18.7693 14.5504 17.2697 14.5504ZM17.2697 18.3651C16.6697 18.3651 16.1818 17.8763 16.1818 17.2752C16.1818 16.6741 16.6697 16.1853 17.2697 16.1853C17.8696 16.1853 18.3576 16.6741 18.3576 17.2752C18.3576 17.8763 17.8696 18.3651 17.2697 18.3651Z" fill="white"/>
<path d="M21.6382 4.01933C21.4837 3.82124 21.2468 3.7057 20.9958 3.7057H5.03628L4.30197 0.627505C4.21413 0.259675 3.88585 3.73314e-09 3.50836 3.73314e-09H0.815893C0.365261 -4.26779e-05 0 0.36591 0 0.817396C0 1.26888 0.365261 1.63483 0.815893 1.63483H2.86436L5.51601 12.751C5.60386 13.1191 5.93214 13.3785 6.30963 13.3785H19.0105C19.3855 13.3785 19.7124 13.1223 19.8024 12.7578L21.7878 4.71956C21.8479 4.47547 21.7926 4.21741 21.6382 4.01933ZM18.3721 11.7436H6.95363L5.42625 5.34058H19.9533L18.3721 11.7436Z" fill="white"/>
<path d="M7.39762 14.5504C5.89798 14.5504 4.67798 15.7728 4.67798 17.2752C4.67798 18.7776 5.89803 20 7.39762 20C8.89722 20 10.1173 18.7776 10.1173 17.2752C10.1173 15.7728 8.89722 14.5504 7.39762 14.5504ZM7.39762 18.3651C6.79767 18.3651 6.30977 17.8763 6.30977 17.2752C6.30977 16.6741 6.79767 16.1853 7.39762 16.1853C7.99757 16.1853 8.48548 16.6741 8.48548 17.2752C8.48548 17.8763 7.99757 18.3651 7.39762 18.3651Z" fill="white"/>
</svg>
