<svg width="53" height="26" viewBox="0 0 53 26" fill="none" xmlns="http://www.w3.org/2000/svg">
<path d="M6.12232 4.3869e-05H2.42508C1.07339 4.3869e-05 0 1.23246 0 2.54439V4.88995H6.12232V4.3869e-05Z" fill="url(#paint0_linear)"/>
<path d="M6.12211 0.278143H2.38511C1.47074 0.278143 0.278076 1.31178 0.278076 2.66346V5.00903H6.12211V0.278143Z" fill="url(#paint1_linear)"/>
<path d="M43.0749 26H22.8593H22.3823H18.4067H2.06728H1.31193C1.31193 25.9602 1.31193 25.9205 1.31193 25.841C0.715596 25.6422 0 25.1254 0 23.893C0 21.945 0 4.33333 0 2.5841C0 4.61162 2.06728 4.69113 2.06728 4.69113H17.0948H21.0703H23.1376H43.0749C44.4266 4.69113 45.5 5.76452 45.5 7.11621V23.5749C45.5 24.9266 44.3868 26 43.0749 26Z" fill="url(#paint2_linear)"/>
<path d="M11.928 19L14.976 14.572L12.144 10.456H13.932L15.876 13.48L17.904 10.456H19.584L16.752 14.572L19.788 19H17.964L15.828 15.736L13.656 19H11.928ZM22.2293 19H20.5013V12.808H21.8693V17.32H21.9053L24.2213 12.808H25.9492V19H24.5813V14.488H24.5453L22.2293 19ZM32.1799 13.888H30.1399V19H28.7719V13.888H26.7319V12.808H32.1799V13.888Z" fill="white"/>
<defs>
<linearGradient id="paint0_linear" x1="3.861" y1="3.87484" x2="0.866228" y2="-1.43512" gradientUnits="userSpaceOnUse">
<stop stop-color="#B44E03"/>
<stop offset="0.3625" stop-color="#C15607"/>
<stop offset="0.7495" stop-color="#EA690B"/>
<stop offset="1" stop-color="#FC7A1C"/>
</linearGradient>
<linearGradient id="paint1_linear" x1="2.59255" y1="5.3716" x2="4.20376" y2="0.717123" gradientUnits="userSpaceOnUse">
<stop stop-color="#B55006"/>
<stop offset="0.5663" stop-color="#E16408"/>
<stop offset="0.804" stop-color="#F76D08"/>
<stop offset="1" stop-color="#FF7B1B"/>
</linearGradient>
<linearGradient id="paint2_linear" x1="-0.178541" y1="11.4754" x2="52.8152" y2="19.3828" gradientUnits="userSpaceOnUse">
<stop stop-color="#E7670B"/>
<stop offset="0.140625" stop-color="#EF6A09"/>
<stop offset="0.348958" stop-color="#EF6A09"/>
<stop offset="0.541667" stop-color="#FF7E21"/>
<stop offset="0.791667" stop-color="#FD6E06"/>
<stop offset="1" stop-color="#EA6809"/>
</linearGradient>
</defs>
</svg>
