<svg width="200" height="81" viewBox="0 0 200 81" fill="none" xmlns="http://www.w3.org/2000/svg">
<path d="M57.2406 30.3457C56.7078 28.0862 55.6231 25.9406 54.0627 24.0039C52.0646 11.833 42.3025 2.47225 30.371 1.82668C29.9524 1.50389 29.5337 1.33301 29.096 1.33301C28.6774 1.33301 28.2397 1.50389 27.821 1.82668C15.8896 2.45326 6.12743 11.814 4.14836 24.0039C2.58794 25.9596 1.50326 28.0862 0.970434 30.3457C0.72305 31.333 0.608873 32.3773 0.589844 33.4026V33.4596C0.665962 34.4849 0.780139 35.4912 0.894316 36.4786C0.894316 36.5165 0.913345 36.5545 0.913345 36.5735C1.04655 37.5988 1.19879 38.6052 1.38908 39.5925C2.15026 43.8836 3.36815 47.909 4.9476 51.5545C6.20354 54.4786 7.70687 57.1558 9.4005 59.5292C10.4091 60.9343 12.1027 61.8267 13.9676 61.9976C16.0037 62.1874 18.0779 62.3203 20.2283 62.4343C23.1017 62.5862 26.0703 62.6621 29.1151 62.6621C32.1598 62.6621 35.1284 62.5862 38.0209 62.4343C40.1522 62.3393 42.2454 62.1874 44.2816 61.9976C46.1465 61.8267 47.8401 60.9343 48.8486 59.5292C50.5423 57.1558 52.0456 54.4786 53.3015 51.5545C54.9 47.909 56.0989 43.8836 56.8601 39.5925C57.0503 38.6052 57.2026 37.5988 57.3358 36.5735C57.3358 36.5545 57.3548 36.5165 57.3548 36.4786C57.488 35.5292 57.5832 34.5608 57.6593 33.5735V33.4976C57.6212 32.4153 57.488 31.371 57.2406 30.3457Z" fill="url(#paint0_linear)"/>
<path d="M57.7575 33.4973C57.6623 31.9593 57.491 30.4973 57.0153 28.9973C56.4444 27.0226 55.2075 25.5606 54.2941 23.7947C53.8374 22.9023 53.7993 21.7061 53.5519 20.7188C53.2284 19.4087 52.8669 18.0416 52.334 16.8074C51.5919 15.1175 50.8307 13.4846 49.8222 11.9276C47.2532 7.95928 43.5995 5.13017 39.3369 3.15549C37.3959 2.26308 35.2646 1.82637 33.1713 1.52258C32.6385 1.44663 32.1437 1.46561 31.7061 1.19979C31.5348 1.0289 31.3064 0.839031 31.0971 0.687133C30.4692 0.231437 29.727 -0.0343862 28.9468 0.00358844C27.3864 0.0795378 26.7013 1.67447 25.4454 1.84536C23.923 2.05422 22.3816 2.24409 20.9163 2.73777C13.8945 5.11118 7.70987 10.3137 4.9506 17.32C4.15136 19.3327 3.56144 21.3454 3.12377 23.453C2.9525 24.2884 2.34356 24.953 1.94394 25.7124C1.48723 26.5669 1.10664 27.4593 0.764109 28.3517C-0.0731893 30.4973 -0.130278 32.8327 0.155165 35.0922C0.193224 35.453 0.307401 36.3643 0.32643 36.4783C0.935374 41.1492 2.15326 45.82 3.86592 50.1871C4.64613 52.1808 5.48342 54.1555 6.49199 56.0352C7.36734 57.6492 8.28076 59.6238 9.61282 60.915C12.1628 63.4023 16.6347 63.2884 20.0029 63.5542C20.6119 63.6112 21.2398 63.6302 21.8488 63.6681C22.3245 63.6871 22.8003 63.7251 23.257 63.7441C24.1894 63.801 24.3226 64.1428 24.9887 64.7504C27.4815 66.9909 31.1162 66.82 34.0086 68.2441C34.5986 68.5289 35.1694 68.8707 35.7213 69.2504C32.0296 71.0352 27.5386 70.8454 23.7517 69.4783C24.0752 72.0605 25.7498 73.3137 28.1856 73.7884C29.727 74.0922 32.1437 74.1681 32.4292 76.1428C32.962 79.9403 25.2551 77.7188 23.6185 76.9973C20.079 75.4403 17.1866 72.7251 14.3512 70.1618C17.8907 75.7061 23.7898 82.1998 31.1352 80.7757C37.9097 79.4466 42.61 72.7061 45.6547 67.0669C46.6062 65.32 47.4435 63.5352 48.2237 61.6935C49.061 61.0099 49.6319 60.2314 50.1837 59.32C51.649 56.9276 52.7908 54.4213 53.8564 51.82C55.7974 47.0162 56.7299 41.8327 57.453 36.7061C57.5672 35.7568 57.7004 34.5795 57.7575 33.4973ZM33.8945 3.00359C42.1913 4.71245 49.4225 11.8517 52.5434 19.4846C56.197 28.4276 52.8669 39.6112 46.2827 46.2568C44.2085 48.3643 41.8869 50.0162 39.2798 51.4023C39.1656 44.0352 38.766 36.7251 38.0048 29.396C37.9097 28.4656 37.7955 27.5352 37.6433 26.6049C37.3198 24.4403 37.2817 22.2947 37.1104 20.1112C36.5396 14.339 35.8926 7.82637 32.8859 2.73777C33.2284 2.85169 33.571 2.92764 33.8945 3.00359ZM28.452 3.06055C28.5662 2.94663 28.8897 2.75675 28.8897 2.73777C29.6889 2.66182 30.2598 3.76308 30.5833 4.3327C31.649 6.23144 32.315 8.35802 32.9049 10.4276C33.8754 13.8643 34.6366 17.396 35.3217 20.8897C36.2161 25.4087 36.3873 29.7757 36.6537 34.3517C36.9582 39.6492 36.9963 44.9466 37.0534 50.2631C37.0534 50.9276 37.3578 51.5162 36.6347 51.5352C35.8164 51.5542 34.9791 51.5732 34.1609 51.5732C32.4863 51.6112 30.8117 51.6492 29.1181 51.6871C27.5386 51.7061 25.9401 51.6302 24.3607 51.5732C23.6566 51.5542 22.9525 51.5352 22.2294 51.5162C21.4492 51.4973 20.8973 51.7631 20.8593 50.9466C20.707 47.1492 20.4977 43.3707 20.8022 39.5732C21.5253 30.839 22.2865 21.9909 24.2846 13.4466C24.7222 11.5479 25.236 9.64916 25.9021 7.82637C26.473 6.30739 27.139 4.10485 28.452 3.06055ZM6.26363 19.9593C9.63185 10.8264 16.3302 4.59853 25.6547 2.28207C23.1618 6.11751 22.2865 11.1681 21.6966 15.6681C21.1447 19.9213 20.4406 24.1555 20.1171 28.4276C19.8507 32.0162 19.7175 35.6428 19.7365 39.2504C19.7365 43.3137 19.3179 47.358 19.0895 51.4213C17.5101 51.0605 15.9877 49.7124 14.7127 48.7251C12.4292 46.9403 10.4882 44.7568 8.94679 42.3074C6.64422 38.6238 5.0838 33.953 4.89351 29.7947C4.72224 26.396 5.36925 23.2251 6.26363 19.9593ZM1.20179 33.4213C1.20179 33.4023 1.20179 33.4213 1.20179 33.4213V33.4213ZM57.1295 36.4593C56.4064 41.0352 55.2265 45.7061 53.2475 50.0162C52.3911 51.877 51.4587 53.6808 50.374 55.4086C49.5367 56.7378 48.4901 58.7504 47.1009 59.6998C44.9696 61.0099 42.6671 60.8011 40.2313 60.934C38.1951 61.0479 36.159 61.0859 34.1228 61.1428C29.4796 61.2757 24.8555 61.2757 20.2123 61.2947H20.2313C18.138 61.2188 16.0638 61.1618 13.9706 61.0859C12.0676 60.877 10.4882 59.8897 9.27029 58.1808C7.50055 55.7124 6.03528 53.0352 4.89351 50.2251C3.99912 48.0036 3.276 45.7441 2.66706 43.4276C2.28647 41.9656 1.982 40.4656 1.77267 38.9846C1.67752 38.3011 1.56335 36.915 1.43014 36.5732C1.12567 33.4403 1.23985 30.7251 2.66706 27.839C2.07714 36.7441 6.07334 45.6492 12.943 51.2884C14.3892 52.4656 15.9496 53.415 17.5672 54.3074C18.6518 54.915 20.2123 54.7441 21.4492 54.7821C24.6271 54.896 27.805 55.0479 30.9829 54.9719C33.2284 54.915 35.4739 54.82 37.7384 54.7251C38.6899 54.6871 39.7555 54.7821 40.5928 54.3074C42.0201 53.5099 43.3902 52.7124 44.6842 51.7061C44.6461 51.7251 44.6271 51.7631 44.589 51.7821C52.4292 45.2124 56.2351 35.434 54.5795 25.2757C55.9116 27.0605 56.825 29.1302 57.2246 31.3137C57.5481 33.0606 57.3198 34.6935 57.1295 36.4593Z" fill="black"/>
<path d="M8.68059 39.3266C10.3552 42.0038 12.3152 44.3962 14.4465 46.7127C12.4484 44.3013 10.6216 41.8329 9.08021 39.0987C7.21532 35.7759 5.90229 32.2633 4.76052 28.6557C4.47507 27.5354 4.20866 26.4152 3.96128 25.2949C3.82807 26.3962 3.75195 27.4975 3.75195 28.6367C3.75195 28.7126 3.75195 28.7886 3.75195 28.8645C3.75195 28.9025 3.77098 28.9215 3.77098 28.9595C5.12208 32.5671 6.62541 36.0607 8.68059 39.3266Z" fill="black"/>
<path d="M10.0888 35.5481C8.52842 32.3772 7.46277 29.0354 6.54935 25.6367C6.07362 23.4532 5.69303 21.2506 5.42661 19.0481C5.08408 20.0164 4.77961 21.0228 4.53223 22.0481C4.8367 23.4342 5.19826 24.8202 5.63594 26.1683C6.72062 29.5861 8.03365 32.8709 9.8034 35.9848C11.1926 38.4721 12.8671 40.7316 14.6559 42.9342C12.9242 40.5797 11.3828 38.1683 10.0888 35.5481Z" fill="black"/>
<path d="M7.27252 22.7125C8.09079 25.9404 9.06129 29.0733 10.5266 32.0733C11.7064 34.4847 13.1717 36.6872 14.8082 38.8328C13.3239 36.6113 12.0109 34.3518 10.9642 31.8834C9.72733 28.9404 8.94712 25.8834 8.3572 22.7695C7.8434 20.0543 7.61505 17.2822 7.53893 14.51C7.10125 15.2695 6.70163 16.048 6.32104 16.8455C6.56843 18.8012 6.8729 20.7568 7.27252 22.7125Z" fill="black"/>
<path d="M8.49023 13.01C8.56635 15.2885 8.73762 17.548 9.1753 19.7885C10.2409 25.1429 12.4103 30.0607 15.1886 34.7315C12.7528 29.9467 10.945 24.9531 10.2409 19.5986C9.86036 16.6936 9.93648 13.7695 10.1077 10.8455C9.53686 11.548 9.00403 12.2695 8.49023 13.01Z" fill="black"/>
<path d="M10.812 10.0669C10.831 11.8707 10.8881 13.6555 11.0404 15.4593C11.459 20.6239 12.8291 25.4467 15.4552 29.9087C14.4276 27.8011 13.6284 25.6745 13.0575 23.377C12.4105 20.6998 12.2202 17.8707 12.2012 15.1175C12.2012 12.858 12.3344 10.5796 12.5247 8.32007C11.9348 8.88969 11.3448 9.45931 10.812 10.0669Z" fill="black"/>
<path d="M15.1507 6.23145C14.5227 6.66815 13.9328 7.12385 13.3429 7.61752C13.2668 9.17448 13.2097 10.7125 13.1907 12.2694C13.2478 14.7568 13.419 17.1681 13.9709 19.5985C14.3895 21.3644 15.0936 23.0162 15.8929 24.6302C15.2078 22.8833 14.675 21.1365 14.4276 19.2568C14.1231 16.9403 14.1992 14.6428 14.3515 12.3264C14.5798 10.2757 14.8653 8.26309 15.1507 6.23145Z" fill="black"/>
<path d="M17.1487 4.95947C16.5588 5.28226 16.0069 5.64302 15.436 6.02276C15.417 7.01011 15.3979 8.01643 15.3979 9.02276C15.5692 12.8012 16.1591 16.4848 17.0155 20.1683C16.5778 16.4468 16.3875 12.7823 16.6158 9.04175C16.749 7.65568 16.9203 6.30757 17.1487 4.95947Z" fill="black"/>
<path d="M19.4894 3.80127C18.9565 4.02912 18.4237 4.29494 17.8909 4.56076C17.8338 5.07342 17.7767 5.60507 17.7577 6.13671C17.5293 9.57342 17.948 12.9911 18.5379 16.3899C18.3476 12.5354 18.5379 8.81393 19.242 5.01646C19.2991 4.59874 19.3942 4.2 19.4894 3.80127Z" fill="black"/>
<path d="M22.2867 2.77585C21.9251 5.58598 21.9061 8.37712 22.1344 11.2252C22.3057 8.22522 22.7624 5.32016 23.5807 2.43408C23.143 2.54801 22.7243 2.66193 22.2867 2.77585Z" fill="black"/>
<path d="M21.5255 3.47823C21.5635 3.30735 21.6206 3.13646 21.6587 2.96558C21.1449 3.13646 20.6501 3.30735 20.1554 3.51621C19.7938 6.83899 19.908 10.1428 20.2886 13.4656C20.3647 10.0858 20.6882 6.76304 21.5255 3.47823Z" fill="black"/>
<path d="M49.48 39.3266C47.8055 42.0038 45.8454 44.3962 43.7141 46.7127C45.7122 44.3013 47.539 41.8329 49.0804 39.0987C50.9453 35.7759 52.2584 32.2633 53.4001 28.6557C53.6856 27.5354 53.952 26.4152 54.1994 25.2949C54.3326 26.3962 54.4087 27.4975 54.4087 28.6367C54.4087 28.7126 54.4087 28.7886 54.4087 28.8645C54.4087 28.9025 54.3896 28.9215 54.3896 28.9595C53.0386 32.5671 51.5352 36.0607 49.48 39.3266Z" fill="black"/>
<path d="M48.0717 35.5481C49.6321 32.3772 50.6978 29.0354 51.6112 25.6367C52.0869 23.4532 52.4675 21.2506 52.7339 19.0481C53.0765 20.0164 53.3809 21.0228 53.6283 22.0481C53.3238 23.4342 52.9623 24.8202 52.5246 26.1683C51.4399 29.5861 50.1269 32.8709 48.3572 35.9848C46.968 38.4721 45.2934 40.7316 43.5046 42.9342C45.2363 40.5797 46.7777 38.1683 48.0717 35.5481Z" fill="black"/>
<path d="M50.8882 22.7126C50.07 25.9404 49.0994 29.0734 47.6342 32.0734C46.4543 34.4848 44.9891 36.6873 43.3525 38.8329C44.8368 36.6113 46.1499 34.3518 47.1965 31.8835C48.4144 28.9594 49.1946 25.9025 49.7845 22.7885C50.2983 20.0734 50.5267 17.3012 50.6028 14.5291C51.0405 15.2885 51.4401 16.067 51.8207 16.8645C51.5923 18.8012 51.2878 20.7569 50.8882 22.7126Z" fill="black"/>
<path d="M49.6703 13.01C49.5942 15.2885 49.4229 17.548 48.9852 19.7885C47.9196 25.1429 45.7502 30.0607 42.9719 34.7315C45.4077 29.9467 47.2155 24.9531 47.9196 19.5986C48.3002 16.6936 48.2241 13.7695 48.0528 10.8455C48.6237 11.548 49.1565 12.2695 49.6703 13.01Z" fill="black"/>
<path d="M47.3485 10.0669C47.3295 11.8707 47.2724 13.6555 47.1202 15.4593C46.7015 20.6239 45.3314 25.4467 42.7053 29.9087C43.7329 27.8011 44.5322 25.6745 45.103 23.377C45.75 20.6998 45.9403 17.8707 45.9594 15.1175C45.9594 12.858 45.8262 10.5796 45.6359 8.32007C46.2448 8.88969 46.8157 9.45931 47.3485 10.0669Z" fill="black"/>
<path d="M43.01 6.23145C43.6379 6.66815 44.2279 7.12385 44.8178 7.61752C44.8939 9.17448 44.951 10.7125 44.97 12.2694C44.9129 14.7568 44.7417 17.1681 44.1898 19.5985C43.7712 21.3644 43.0671 23.0162 42.2678 24.6302C42.9529 22.8833 43.4857 21.1365 43.7331 19.2568C44.0376 16.9403 43.9615 14.6428 43.8092 12.3264C43.5809 10.2757 43.2954 8.26309 43.01 6.23145Z" fill="black"/>
<path d="M41.0117 4.95947C41.6016 5.28226 42.1535 5.64302 42.7244 6.02276C42.7624 7.01011 42.7815 8.01643 42.7624 9.00378C42.5912 12.7823 42.0013 16.4658 41.1449 20.1493C41.5826 16.4278 41.7729 12.7633 41.5445 9.02276C41.4113 7.65567 41.2401 6.30757 41.0117 4.95947Z" fill="black"/>
<path d="M38.6711 3.80127C39.204 4.02912 39.7368 4.29494 40.2696 4.56076C40.3267 5.07342 40.3838 5.60507 40.4028 6.13671C40.6312 9.57342 40.2125 12.9911 39.6226 16.3899C39.8129 12.5354 39.6226 8.81393 38.9185 5.01646C38.8614 4.59874 38.7663 4.2 38.6711 3.80127Z" fill="black"/>
<path d="M35.8738 2.77585C36.2354 5.58598 36.2544 8.37712 36.0261 11.2252C35.8548 8.22522 35.3981 5.32016 34.5798 2.43408C35.0175 2.54801 35.4552 2.66193 35.8738 2.77585Z" fill="black"/>
<path d="M36.6349 3.47823C36.5969 3.30735 36.5398 3.13646 36.5017 2.96558C37.0155 3.13646 37.5103 3.30735 38.005 3.51621C38.3666 6.83899 38.2524 10.1428 37.8718 13.4656C37.7957 10.0858 37.4722 6.76304 36.6349 3.47823Z" fill="black"/>
<path d="M86.1097 20.4434L78.9867 27.772L86.7735 39.0126H81.7695L76.255 30.6669L73.9317 33.0141V39.0126H70V20.4434H73.9317V28.1632L81.0802 20.4434H86.1097Z" fill="black"/>
<path d="M96.1458 20C98.8009 20 100.945 20.9041 102.579 22.7124C104.23 24.5032 105.056 26.8505 105.056 29.7541C105.056 32.6577 104.23 35.0049 102.579 36.7958C100.945 38.5693 98.7924 39.456 96.1202 39.456C93.431 39.456 91.2609 38.5693 89.61 36.7958C87.959 35.0049 87.1335 32.6577 87.1335 29.7541C87.1335 26.8157 87.9505 24.4598 89.5844 22.6863C91.2354 20.8954 93.4225 20 96.1458 20ZM96.0947 23.3383C94.5969 23.3383 93.397 23.9121 92.4949 25.0596C91.6098 26.2071 91.1673 27.7459 91.1673 29.6758C91.1673 31.6753 91.6098 33.2402 92.4949 34.3703C93.38 35.5005 94.5969 36.0742 96.1458 36.0916C97.6606 36.0916 98.852 35.5179 99.72 34.3703C100.588 33.2228 101.022 31.658 101.022 29.6758C101.022 27.7285 100.58 26.1898 99.6945 25.0596C98.8094 23.9121 97.6095 23.3383 96.0947 23.3383Z" fill="black"/>
<path d="M123.191 20.4434V39.0126H119.208V31.0059H111.779V39.0126H107.796V20.4434H111.779V27.4329H119.208V20.4434H123.191Z" fill="black"/>
<path d="M134.94 20C137.595 20 139.74 20.9041 141.374 22.7124C143.025 24.5032 143.85 26.8505 143.85 29.7541C143.85 32.6577 143.025 35.0049 141.374 36.7958C139.74 38.5693 137.587 39.456 134.915 39.456C132.225 39.456 130.055 38.5693 128.404 36.7958C126.753 35.0049 125.928 32.6577 125.928 29.7541C125.928 26.8157 126.745 24.4598 128.379 22.6863C130.03 20.8954 132.217 20 134.94 20ZM134.889 23.3383C133.391 23.3383 132.191 23.9121 131.289 25.0596C130.404 26.2071 129.962 27.7459 129.962 29.6758C129.962 31.6753 130.404 33.2402 131.289 34.3703C132.174 35.5005 133.391 36.0742 134.94 36.0916C136.455 36.0916 137.646 35.5179 138.514 34.3703C139.382 33.2228 139.816 31.658 139.816 29.6758C139.816 27.7285 139.374 26.1898 138.489 25.0596C137.604 23.9121 136.404 23.3383 134.889 23.3383Z" fill="black"/>
<path d="M146.616 20.4434H154.453C156.496 20.4434 158.113 20.9476 159.304 21.956C160.513 22.9471 161.117 24.4337 161.117 26.4158C161.117 28.3631 160.521 29.841 159.33 30.8495C158.138 31.8405 156.581 32.336 154.658 32.336H150.573V39.0126H146.616V20.4434ZM150.573 23.7817V29.1281H154.122C156.198 29.1281 157.236 28.2414 157.236 26.4679C157.236 24.6771 156.207 23.7817 154.147 23.7817H150.573Z" fill="black"/>
<path d="M179.779 20.4434L172.656 27.772L180.443 39.0126H175.439L169.925 30.6669L167.601 33.0141V39.0126H163.67V20.4434H167.601V28.1632L174.75 20.4434H179.779Z" fill="black"/>
<path d="M191.081 20.4173L198 39.0126H193.813L192.383 34.8658H185.618L184.137 39.0126H180.052L186.971 20.4173H191.081ZM191.413 31.8927L189.013 24.9814L186.588 31.8927H191.413Z" fill="black"/>
<path d="M77.2883 59.0761C76.9077 59.266 76.0324 59.4748 74.8906 59.4748C71.6746 59.4748 70 57.4812 70 54.8229C70 51.6521 72.2645 49.8862 75.0999 49.8862C76.1846 49.8862 77.0219 50.1141 77.4025 50.304L76.9648 51.9748C76.5271 51.804 75.9372 51.6331 75.1951 51.6331C73.5205 51.6331 72.2265 52.6394 72.2265 54.709C72.2265 56.5698 73.3302 57.747 75.2141 57.747C75.8421 57.747 76.5652 57.6141 76.9648 57.4432L77.2883 59.0761Z" fill="black"/>
<path d="M90.3045 50.0381V59.3419H88.1922V51.7659H84.8811V59.3419H82.7688V50.0381H90.3045Z" fill="black"/>
<path d="M101.798 55.4115H98.373V57.614H102.198V59.3419H96.2417V50.0381H101.989V51.7659H98.354V53.7026H101.779V55.4115H101.798Z" fill="black"/>
<path d="M109.848 50.0381V57.614H113.121V50.0381H115.214V57.69L116.147 57.7469L116.051 61.7153H114.453L114.339 59.3609H107.717V50.0571H109.848V50.0381Z" fill="black"/>
<path d="M129.886 54.5951C129.886 57.6521 128.04 59.4938 125.3 59.4938C122.54 59.4938 120.923 57.4052 120.923 54.766C120.923 51.9748 122.712 49.8862 125.452 49.8862C128.306 49.8862 129.886 52.0318 129.886 54.5951ZM123.149 54.728C123.149 56.5508 124.006 57.8419 125.414 57.8419C126.841 57.8419 127.659 56.4938 127.659 54.69C127.659 53.0191 126.86 51.5761 125.414 51.5761C123.968 51.5571 123.149 52.9052 123.149 54.728Z" fill="black"/>
<path d="M142.426 50.0381V57.69L143.359 57.7469L143.264 61.7153H141.646L141.532 59.3609H136.09L135.975 61.7153H134.377L134.301 57.7469L135.081 57.69C135.462 57.0254 135.766 56.3419 135.975 55.6204C136.242 54.69 136.356 53.6647 136.356 52.5254V50.0381H142.426ZM138.278 53.0001C138.278 54.0824 138.145 55.1267 137.859 56.0571C137.688 56.6267 137.46 57.1963 137.212 57.633H140.314V51.7469H138.278V53.0001Z" fill="black"/>
<path d="M154.186 55.4115H150.761V57.614H154.586V59.3419H148.63V50.0381H154.396V51.7659H150.761V53.7026H154.186V55.4115Z" fill="black"/>
<path d="M161.76 50.0381L164.063 53.9115H164.253V50.0381H166.27V53.9115H166.46L168.782 50.0381H171.237L168.059 54.1963C169.315 54.3292 169.924 55.2596 170.323 56.4558C170.647 57.4242 170.875 58.4305 171.275 59.3419H169.144C168.858 58.7153 168.668 57.9558 168.478 57.2913C168.173 56.3039 167.735 55.4495 166.594 55.4495H166.27V59.3419H164.253V55.4495H163.911C162.769 55.4495 162.35 56.2849 162.046 57.2913C161.855 57.9558 161.665 58.7343 161.38 59.3419H159.248C159.667 58.4305 159.933 57.4242 160.238 56.5128C160.618 55.3166 161.227 54.4242 162.483 54.1963L159.305 50.0381H161.76Z" fill="black"/>
<path d="M184.044 50.0381V57.69L184.976 57.7469L184.881 61.7153H183.283L183.168 59.3609H177.726L177.612 61.7153H176.013L175.937 57.7469L176.717 57.69C177.098 57.0254 177.403 56.3419 177.612 55.6204C177.878 54.69 177.992 53.6647 177.992 52.5254V50.0381H184.044ZM179.895 53.0001C179.895 54.0824 179.762 55.1267 179.477 56.0571C179.305 56.6267 179.077 57.1963 178.83 57.633H181.932V51.7469H179.895V53.0001Z" fill="black"/>
<path d="M192.55 56.9495L191.884 59.3419H189.696L192.55 50.0381H195.309L198.202 59.3419H195.937L195.214 56.9495H192.55ZM194.91 55.3735L194.32 53.3988C194.148 52.8482 193.996 52.1647 193.844 51.595H193.825C193.692 52.1457 193.54 52.8482 193.387 53.3988L192.835 55.3735H194.91Z" fill="black"/>
<defs>
<linearGradient id="paint0_linear" x1="29.1246" y1="1.33301" x2="29.1246" y2="62.6621" gradientUnits="userSpaceOnUse">
<stop stop-color="#007BC2"/>
<stop offset="1" stop-color="#259EE3"/>
</linearGradient>
</defs>
</svg>
