<svg width="207" height="89" viewBox="0 0 207 89" fill="none" xmlns="http://www.w3.org/2000/svg">
<g filter="url(#filter0_d)">
<path d="M61.2406 30.3457C60.7078 28.0862 59.6231 25.9406 58.0627 24.0039C56.0646 11.833 46.3025 2.47225 34.371 1.82668C33.9524 1.50389 33.5337 1.33301 33.096 1.33301C32.6774 1.33301 32.2397 1.50389 31.821 1.82668C19.8896 2.45326 10.1274 11.814 8.14836 24.0039C6.58794 25.9596 5.50326 28.0862 4.97043 30.3457C4.72305 31.333 4.60887 32.3773 4.58984 33.4026V33.4596C4.66596 34.4849 4.78014 35.4912 4.89432 36.4786C4.89432 36.5165 4.91335 36.5545 4.91335 36.5735C5.04655 37.5988 5.19879 38.6052 5.38908 39.5925C6.15026 43.8836 7.36815 47.909 8.9476 51.5545C10.2035 54.4786 11.7069 57.1558 13.4005 59.5292C14.4091 60.9343 16.1027 61.8267 17.9676 61.9976C20.0037 62.1874 22.0779 62.3203 24.2283 62.4343C27.1017 62.5862 30.0703 62.6621 33.1151 62.6621C36.1598 62.6621 39.1284 62.5862 42.0209 62.4343C44.1522 62.3393 46.2454 62.1874 48.2816 61.9976C50.1465 61.8267 51.8401 60.9343 52.8486 59.5292C54.5423 57.1558 56.0456 54.4786 57.3015 51.5545C58.9 47.909 60.0989 43.8836 60.8601 39.5925C61.0503 38.6052 61.2026 37.5988 61.3358 36.5735C61.3358 36.5545 61.3548 36.5165 61.3548 36.4786C61.488 35.5292 61.5832 34.5608 61.6593 33.5735V33.4976C61.6212 32.4153 61.488 31.371 61.2406 30.3457Z" fill="url(#paint0_linear)"/>
<path d="M61.7575 33.4973C61.6623 31.9593 61.491 30.4973 61.0153 28.9973C60.4444 27.0226 59.2075 25.5606 58.2941 23.7947C57.8374 22.9023 57.7993 21.7061 57.5519 20.7188C57.2284 19.4087 56.8669 18.0416 56.334 16.8074C55.5919 15.1175 54.8307 13.4846 53.8222 11.9276C51.2532 7.95928 47.5995 5.13017 43.3369 3.15549C41.3959 2.26308 39.2646 1.82637 37.1713 1.52258C36.6385 1.44663 36.1437 1.46561 35.7061 1.19979C35.5348 1.0289 35.3064 0.839031 35.0971 0.687133C34.4692 0.231437 33.727 -0.0343862 32.9468 0.00358844C31.3864 0.0795378 30.7013 1.67447 29.4454 1.84536C27.923 2.05422 26.3816 2.24409 24.9163 2.73777C17.8945 5.11118 11.7099 10.3137 8.9506 17.32C8.15136 19.3327 7.56144 21.3454 7.12377 23.453C6.9525 24.2884 6.34356 24.953 5.94394 25.7124C5.48723 26.5669 5.10664 27.4593 4.76411 28.3517C3.92681 30.4973 3.86972 32.8327 4.15516 35.0922C4.19322 35.453 4.3074 36.3643 4.32643 36.4783C4.93537 41.1492 6.15326 45.82 7.86592 50.1871C8.64613 52.1808 9.48342 54.1555 10.492 56.0352C11.3673 57.6492 12.2808 59.6238 13.6128 60.915C16.1628 63.4023 20.6347 63.2884 24.0029 63.5542C24.6119 63.6112 25.2398 63.6302 25.8488 63.6681C26.3245 63.6871 26.8003 63.7251 27.257 63.7441C28.1894 63.801 28.3226 64.1428 28.9887 64.7504C31.4815 66.9909 35.1162 66.82 38.0086 68.2441C38.5986 68.5289 39.1694 68.8707 39.7213 69.2504C36.0296 71.0352 31.5386 70.8454 27.7517 69.4783C28.0752 72.0605 29.7498 73.3137 32.1856 73.7884C33.727 74.0922 36.1437 74.1681 36.4292 76.1428C36.962 79.9403 29.2551 77.7188 27.6185 76.9973C24.079 75.4403 21.1866 72.7251 18.3512 70.1618C21.8907 75.7061 27.7898 82.1998 35.1352 80.7757C41.9097 79.4466 46.61 72.7061 49.6547 67.0669C50.6062 65.32 51.4435 63.5352 52.2237 61.6935C53.061 61.0099 53.6319 60.2314 54.1837 59.32C55.649 56.9276 56.7908 54.4213 57.8564 51.82C59.7974 47.0162 60.7299 41.8327 61.453 36.7061C61.5672 35.7568 61.7004 34.5795 61.7575 33.4973ZM37.8945 3.00359C46.1913 4.71245 53.4225 11.8517 56.5434 19.4846C60.197 28.4276 56.8669 39.6112 50.2827 46.2568C48.2085 48.3643 45.8869 50.0162 43.2798 51.4023C43.1656 44.0352 42.766 36.7251 42.0048 29.396C41.9097 28.4656 41.7955 27.5352 41.6433 26.6049C41.3198 24.4403 41.2817 22.2947 41.1104 20.1112C40.5396 14.339 39.8926 7.82637 36.8859 2.73777C37.2284 2.85169 37.571 2.92764 37.8945 3.00359ZM32.452 3.06055C32.5662 2.94663 32.8897 2.75675 32.8897 2.73777C33.6889 2.66182 34.2598 3.76308 34.5833 4.3327C35.649 6.23144 36.315 8.35802 36.9049 10.4276C37.8754 13.8643 38.6366 17.396 39.3217 20.8897C40.2161 25.4087 40.3873 29.7757 40.6537 34.3517C40.9582 39.6492 40.9963 44.9466 41.0534 50.2631C41.0534 50.9276 41.3578 51.5162 40.6347 51.5352C39.8164 51.5542 38.9791 51.5732 38.1609 51.5732C36.4863 51.6112 34.8117 51.6492 33.1181 51.6871C31.5386 51.7061 29.9401 51.6302 28.3607 51.5732C27.6566 51.5542 26.9525 51.5352 26.2294 51.5162C25.4492 51.4973 24.8973 51.7631 24.8593 50.9466C24.707 47.1492 24.4977 43.3707 24.8022 39.5732C25.5253 30.839 26.2865 21.9909 28.2846 13.4466C28.7222 11.5479 29.236 9.64916 29.9021 7.82637C30.473 6.30739 31.139 4.10485 32.452 3.06055ZM10.2636 19.9593C13.6319 10.8264 20.3302 4.59853 29.6547 2.28207C27.1618 6.11751 26.2865 11.1681 25.6966 15.6681C25.1447 19.9213 24.4406 24.1555 24.1171 28.4276C23.8507 32.0162 23.7175 35.6428 23.7365 39.2504C23.7365 43.3137 23.3179 47.358 23.0895 51.4213C21.5101 51.0605 19.9877 49.7124 18.7127 48.7251C16.4292 46.9403 14.4882 44.7568 12.9468 42.3074C10.6442 38.6238 9.0838 33.953 8.89351 29.7947C8.72224 26.396 9.36925 23.2251 10.2636 19.9593ZM5.20179 33.4213C5.20179 33.4023 5.20179 33.4213 5.20179 33.4213V33.4213ZM61.1295 36.4593C60.4064 41.0352 59.2265 45.7061 57.2475 50.0162C56.3911 51.877 55.4587 53.6808 54.374 55.4086C53.5367 56.7378 52.4901 58.7504 51.1009 59.6998C48.9696 61.0099 46.6671 60.8011 44.2313 60.934C42.1951 61.0479 40.159 61.0859 38.1228 61.1428C33.4796 61.2757 28.8555 61.2757 24.2123 61.2947H24.2313C22.138 61.2188 20.0638 61.1618 17.9706 61.0859C16.0676 60.877 14.4882 59.8897 13.2703 58.1808C11.5006 55.7124 10.0353 53.0352 8.89351 50.2251C7.99912 48.0036 7.276 45.7441 6.66706 43.4276C6.28647 41.9656 5.982 40.4656 5.77267 38.9846C5.67752 38.3011 5.56335 36.915 5.43014 36.5732C5.12567 33.4403 5.23985 30.7251 6.66706 27.839C6.07714 36.7441 10.0733 45.6492 16.943 51.2884C18.3892 52.4656 19.9496 53.415 21.5672 54.3074C22.6518 54.915 24.2123 54.7441 25.4492 54.7821C28.6271 54.896 31.805 55.0479 34.9829 54.9719C37.2284 54.915 39.4739 54.82 41.7384 54.7251C42.6899 54.6871 43.7555 54.7821 44.5928 54.3074C46.0201 53.5099 47.3902 52.7124 48.6842 51.7061C48.6461 51.7251 48.6271 51.7631 48.589 51.7821C56.4292 45.2124 60.2351 35.434 58.5795 25.2757C59.9116 27.0605 60.825 29.1302 61.2246 31.3137C61.5481 33.0606 61.3198 34.6935 61.1295 36.4593Z" fill="black"/>
<path d="M12.6806 39.3266C14.3552 42.0038 16.3152 44.3962 18.4465 46.7127C16.4484 44.3013 14.6216 41.8329 13.0802 39.0987C11.2153 35.7759 9.90229 32.2633 8.76052 28.6557C8.47507 27.5354 8.20866 26.4152 7.96128 25.2949C7.82807 26.3962 7.75195 27.4975 7.75195 28.6367C7.75195 28.7126 7.75195 28.7886 7.75195 28.8645C7.75195 28.9025 7.77098 28.9215 7.77098 28.9595C9.12208 32.5671 10.6254 36.0607 12.6806 39.3266Z" fill="black"/>
<path d="M14.0888 35.5481C12.5284 32.3772 11.4628 29.0354 10.5494 25.6367C10.0736 23.4532 9.69303 21.2506 9.42661 19.0481C9.08408 20.0164 8.77961 21.0228 8.53223 22.0481C8.8367 23.4342 9.19826 24.8202 9.63594 26.1683C10.7206 29.5861 12.0337 32.8709 13.8034 35.9848C15.1926 38.4721 16.8671 40.7316 18.6559 42.9342C16.9242 40.5797 15.3828 38.1683 14.0888 35.5481Z" fill="black"/>
<path d="M11.2725 22.7125C12.0908 25.9404 13.0613 29.0733 14.5266 32.0733C15.7064 34.4847 17.1717 36.6872 18.8082 38.8328C17.3239 36.6113 16.0109 34.3518 14.9642 31.8834C13.7273 28.9404 12.9471 25.8834 12.3572 22.7695C11.8434 20.0543 11.6151 17.2822 11.5389 14.51C11.1013 15.2695 10.7016 16.048 10.321 16.8455C10.5684 18.8012 10.8729 20.7568 11.2725 22.7125Z" fill="black"/>
<path d="M12.4902 13.01C12.5664 15.2885 12.7376 17.548 13.1753 19.7885C14.2409 25.1429 16.4103 30.0607 19.1886 34.7315C16.7528 29.9467 14.945 24.9531 14.2409 19.5986C13.8604 16.6936 13.9365 13.7695 14.1077 10.8455C13.5369 11.548 13.004 12.2695 12.4902 13.01Z" fill="black"/>
<path d="M14.812 10.0669C14.831 11.8707 14.8881 13.6555 15.0404 15.4593C15.459 20.6239 16.8291 25.4467 19.4552 29.9087C18.4276 27.8011 17.6284 25.6745 17.0575 23.377C16.4105 20.6998 16.2202 17.8707 16.2012 15.1175C16.2012 12.858 16.3344 10.5796 16.5247 8.32007C15.9348 8.88969 15.3448 9.45931 14.812 10.0669Z" fill="black"/>
<path d="M19.1507 6.23145C18.5227 6.66815 17.9328 7.12385 17.3429 7.61752C17.2668 9.17448 17.2097 10.7125 17.1907 12.2694C17.2478 14.7568 17.419 17.1681 17.9709 19.5985C18.3895 21.3644 19.0936 23.0162 19.8929 24.6302C19.2078 22.8833 18.675 21.1365 18.4276 19.2568C18.1231 16.9403 18.1992 14.6428 18.3515 12.3264C18.5798 10.2757 18.8653 8.26309 19.1507 6.23145Z" fill="black"/>
<path d="M21.1487 4.95947C20.5588 5.28226 20.0069 5.64302 19.436 6.02276C19.417 7.01011 19.3979 8.01643 19.3979 9.02276C19.5692 12.8012 20.1591 16.4848 21.0155 20.1683C20.5778 16.4468 20.3875 12.7823 20.6158 9.04175C20.749 7.65568 20.9203 6.30757 21.1487 4.95947Z" fill="black"/>
<path d="M23.4894 3.80127C22.9565 4.02912 22.4237 4.29494 21.8909 4.56076C21.8338 5.07342 21.7767 5.60507 21.7577 6.13671C21.5293 9.57342 21.948 12.9911 22.5379 16.3899C22.3476 12.5354 22.5379 8.81393 23.242 5.01646C23.2991 4.59874 23.3942 4.2 23.4894 3.80127Z" fill="black"/>
<path d="M26.2867 2.77585C25.9251 5.58598 25.9061 8.37712 26.1344 11.2252C26.3057 8.22522 26.7624 5.32016 27.5807 2.43408C27.143 2.54801 26.7243 2.66193 26.2867 2.77585Z" fill="black"/>
<path d="M25.5255 3.47823C25.5635 3.30735 25.6206 3.13646 25.6587 2.96558C25.1449 3.13646 24.6501 3.30735 24.1554 3.51621C23.7938 6.83899 23.908 10.1428 24.2886 13.4656C24.3647 10.0858 24.6882 6.76304 25.5255 3.47823Z" fill="black"/>
<path d="M53.48 39.3266C51.8055 42.0038 49.8454 44.3962 47.7141 46.7127C49.7122 44.3013 51.539 41.8329 53.0804 39.0987C54.9453 35.7759 56.2584 32.2633 57.4001 28.6557C57.6856 27.5354 57.952 26.4152 58.1994 25.2949C58.3326 26.3962 58.4087 27.4975 58.4087 28.6367C58.4087 28.7126 58.4087 28.7886 58.4087 28.8645C58.4087 28.9025 58.3896 28.9215 58.3896 28.9595C57.0386 32.5671 55.5352 36.0607 53.48 39.3266Z" fill="black"/>
<path d="M52.0717 35.5481C53.6321 32.3772 54.6978 29.0354 55.6112 25.6367C56.0869 23.4532 56.4675 21.2506 56.7339 19.0481C57.0765 20.0164 57.3809 21.0228 57.6283 22.0481C57.3238 23.4342 56.9623 24.8202 56.5246 26.1683C55.4399 29.5861 54.1269 32.8709 52.3572 35.9848C50.968 38.4721 49.2934 40.7316 47.5046 42.9342C49.2363 40.5797 50.7777 38.1683 52.0717 35.5481Z" fill="black"/>
<path d="M54.8882 22.7126C54.07 25.9404 53.0994 29.0734 51.6342 32.0734C50.4543 34.4848 48.9891 36.6873 47.3525 38.8329C48.8368 36.6113 50.1499 34.3518 51.1965 31.8835C52.4144 28.9594 53.1946 25.9025 53.7845 22.7885C54.2983 20.0734 54.5267 17.3012 54.6028 14.5291C55.0405 15.2885 55.4401 16.067 55.8207 16.8645C55.5923 18.8012 55.2878 20.7569 54.8882 22.7126Z" fill="black"/>
<path d="M53.6703 13.01C53.5942 15.2885 53.4229 17.548 52.9852 19.7885C51.9196 25.1429 49.7502 30.0607 46.9719 34.7315C49.4077 29.9467 51.2155 24.9531 51.9196 19.5986C52.3002 16.6936 52.2241 13.7695 52.0528 10.8455C52.6237 11.548 53.1565 12.2695 53.6703 13.01Z" fill="black"/>
<path d="M51.3485 10.0669C51.3295 11.8707 51.2724 13.6555 51.1202 15.4593C50.7015 20.6239 49.3314 25.4467 46.7053 29.9087C47.7329 27.8011 48.5322 25.6745 49.103 23.377C49.75 20.6998 49.9403 17.8707 49.9594 15.1175C49.9594 12.858 49.8262 10.5796 49.6359 8.32007C50.2448 8.88969 50.8157 9.45931 51.3485 10.0669Z" fill="black"/>
<path d="M47.01 6.23145C47.6379 6.66815 48.2279 7.12385 48.8178 7.61752C48.8939 9.17448 48.951 10.7125 48.97 12.2694C48.9129 14.7568 48.7417 17.1681 48.1898 19.5985C47.7712 21.3644 47.0671 23.0162 46.2678 24.6302C46.9529 22.8833 47.4857 21.1365 47.7331 19.2568C48.0376 16.9403 47.9615 14.6428 47.8092 12.3264C47.5809 10.2757 47.2954 8.26309 47.01 6.23145Z" fill="black"/>
<path d="M45.0117 4.95947C45.6016 5.28226 46.1535 5.64302 46.7244 6.02276C46.7624 7.01011 46.7815 8.01643 46.7624 9.00378C46.5912 12.7823 46.0013 16.4658 45.1449 20.1493C45.5826 16.4278 45.7729 12.7633 45.5445 9.02276C45.4113 7.65567 45.2401 6.30757 45.0117 4.95947Z" fill="black"/>
<path d="M42.6711 3.80127C43.204 4.02912 43.7368 4.29494 44.2696 4.56076C44.3267 5.07342 44.3838 5.60507 44.4028 6.13671C44.6312 9.57342 44.2125 12.9911 43.6226 16.3899C43.8129 12.5354 43.6226 8.81393 42.9185 5.01646C42.8614 4.59874 42.7663 4.2 42.6711 3.80127Z" fill="black"/>
<path d="M39.8738 2.77585C40.2354 5.58598 40.2544 8.37712 40.0261 11.2252C39.8548 8.22522 39.3981 5.32016 38.5798 2.43408C39.0175 2.54801 39.4552 2.66193 39.8738 2.77585Z" fill="black"/>
<path d="M40.6349 3.47823C40.5969 3.30735 40.5398 3.13646 40.5017 2.96558C41.0155 3.13646 41.5103 3.30735 42.005 3.51621C42.3666 6.83899 42.2524 10.1428 41.8718 13.4656C41.7957 10.0858 41.4722 6.76304 40.6349 3.47823Z" fill="black"/>
<path d="M90.1097 20.4434L82.9867 27.772L90.7735 39.0126H85.7695L80.255 30.6669L77.9317 33.0141V39.0126H74V20.4434H77.9317V28.1632L85.0802 20.4434H90.1097Z" fill="black"/>
<path d="M100.146 20C102.801 20 104.945 20.9041 106.579 22.7124C108.23 24.5032 109.056 26.8505 109.056 29.7541C109.056 32.6577 108.23 35.0049 106.579 36.7958C104.945 38.5693 102.792 39.456 100.12 39.456C97.431 39.456 95.2609 38.5693 93.61 36.7958C91.959 35.0049 91.1335 32.6577 91.1335 29.7541C91.1335 26.8157 91.9505 24.4598 93.5844 22.6863C95.2354 20.8954 97.4225 20 100.146 20ZM100.095 23.3383C98.5969 23.3383 97.397 23.9121 96.4949 25.0596C95.6098 26.2071 95.1673 27.7459 95.1673 29.6758C95.1673 31.6753 95.6098 33.2402 96.4949 34.3703C97.38 35.5005 98.5969 36.0742 100.146 36.0916C101.661 36.0916 102.852 35.5179 103.72 34.3703C104.588 33.2228 105.022 31.658 105.022 29.6758C105.022 27.7285 104.58 26.1898 103.694 25.0596C102.809 23.9121 101.609 23.3383 100.095 23.3383Z" fill="black"/>
<path d="M127.191 20.4434V39.0126H123.208V31.0059H115.779V39.0126H111.796V20.4434H115.779V27.4329H123.208V20.4434H127.191Z" fill="black"/>
<path d="M138.94 20C141.595 20 143.74 20.9041 145.374 22.7124C147.025 24.5032 147.85 26.8505 147.85 29.7541C147.85 32.6577 147.025 35.0049 145.374 36.7958C143.74 38.5693 141.587 39.456 138.915 39.456C136.225 39.456 134.055 38.5693 132.404 36.7958C130.753 35.0049 129.928 32.6577 129.928 29.7541C129.928 26.8157 130.745 24.4598 132.379 22.6863C134.03 20.8954 136.217 20 138.94 20ZM138.889 23.3383C137.391 23.3383 136.191 23.9121 135.289 25.0596C134.404 26.2071 133.962 27.7459 133.962 29.6758C133.962 31.6753 134.404 33.2402 135.289 34.3703C136.174 35.5005 137.391 36.0742 138.94 36.0916C140.455 36.0916 141.646 35.5179 142.514 34.3703C143.382 33.2228 143.816 31.658 143.816 29.6758C143.816 27.7285 143.374 26.1898 142.489 25.0596C141.604 23.9121 140.404 23.3383 138.889 23.3383Z" fill="black"/>
<path d="M150.616 20.4434H158.453C160.496 20.4434 162.113 20.9476 163.304 21.956C164.513 22.9471 165.117 24.4337 165.117 26.4158C165.117 28.3631 164.521 29.841 163.33 30.8495C162.138 31.8405 160.581 32.336 158.658 32.336H154.573V39.0126H150.616V20.4434ZM154.573 23.7817V29.1281H158.122C160.198 29.1281 161.236 28.2414 161.236 26.4679C161.236 24.6771 160.207 23.7817 158.147 23.7817H154.573Z" fill="black"/>
<path d="M183.779 20.4434L176.656 27.772L184.443 39.0126H179.439L173.925 30.6669L171.601 33.0141V39.0126H167.67V20.4434H171.601V28.1632L178.75 20.4434H183.779Z" fill="black"/>
<path d="M195.081 20.4173L202 39.0126H197.813L196.383 34.8658H189.618L188.137 39.0126H184.052L190.971 20.4173H195.081ZM195.413 31.8927L193.013 24.9814L190.588 31.8927H195.413Z" fill="black"/>
<path d="M81.2883 59.0761C80.9077 59.266 80.0324 59.4748 78.8906 59.4748C75.6746 59.4748 74 57.4812 74 54.8229C74 51.6521 76.2645 49.8862 79.0999 49.8862C80.1846 49.8862 81.0219 50.1141 81.4025 50.304L80.9648 51.9748C80.5271 51.804 79.9372 51.6331 79.1951 51.6331C77.5205 51.6331 76.2265 52.6394 76.2265 54.709C76.2265 56.5698 77.3302 57.747 79.2141 57.747C79.8421 57.747 80.5652 57.6141 80.9648 57.4432L81.2883 59.0761Z" fill="black"/>
<path d="M94.3045 50.0381V59.3419H92.1922V51.7659H88.8811V59.3419H86.7688V50.0381H94.3045Z" fill="black"/>
<path d="M105.798 55.4115H102.373V57.614H106.198V59.3419H100.242V50.0381H105.989V51.7659H102.354V53.7026H105.779V55.4115H105.798Z" fill="black"/>
<path d="M113.848 50.0381V57.614H117.121V50.0381H119.214V57.69L120.147 57.7469L120.051 61.7153H118.453L118.339 59.3609H111.717V50.0571H113.848V50.0381Z" fill="black"/>
<path d="M133.886 54.5951C133.886 57.6521 132.04 59.4938 129.3 59.4938C126.54 59.4938 124.923 57.4052 124.923 54.766C124.923 51.9748 126.712 49.8862 129.452 49.8862C132.306 49.8862 133.886 52.0318 133.886 54.5951ZM127.149 54.728C127.149 56.5508 128.006 57.8419 129.414 57.8419C130.841 57.8419 131.659 56.4938 131.659 54.69C131.659 53.0191 130.86 51.5761 129.414 51.5761C127.968 51.5571 127.149 52.9052 127.149 54.728Z" fill="black"/>
<path d="M146.426 50.0381V57.69L147.359 57.7469L147.264 61.7153H145.646L145.532 59.3609H140.09L139.975 61.7153H138.377L138.301 57.7469L139.081 57.69C139.462 57.0254 139.766 56.3419 139.975 55.6204C140.242 54.69 140.356 53.6647 140.356 52.5254V50.0381H146.426ZM142.278 53.0001C142.278 54.0824 142.145 55.1267 141.859 56.0571C141.688 56.6267 141.46 57.1963 141.212 57.633H144.314V51.7469H142.278V53.0001Z" fill="black"/>
<path d="M158.186 55.4115H154.761V57.614H158.586V59.3419H152.63V50.0381H158.396V51.7659H154.761V53.7026H158.186V55.4115Z" fill="black"/>
<path d="M165.76 50.0381L168.063 53.9115H168.253V50.0381H170.27V53.9115H170.46L172.782 50.0381H175.237L172.059 54.1963C173.315 54.3292 173.924 55.2596 174.323 56.4558C174.647 57.4242 174.875 58.4305 175.275 59.3419H173.144C172.858 58.7153 172.668 57.9558 172.478 57.2913C172.173 56.3039 171.735 55.4495 170.594 55.4495H170.27V59.3419H168.253V55.4495H167.911C166.769 55.4495 166.35 56.2849 166.046 57.2913C165.855 57.9558 165.665 58.7343 165.38 59.3419H163.248C163.667 58.4305 163.933 57.4242 164.238 56.5128C164.618 55.3166 165.227 54.4242 166.483 54.1963L163.305 50.0381H165.76Z" fill="black"/>
<path d="M188.044 50.0381V57.69L188.976 57.7469L188.881 61.7153H187.283L187.168 59.3609H181.726L181.612 61.7153H180.013L179.937 57.7469L180.717 57.69C181.098 57.0254 181.403 56.3419 181.612 55.6204C181.878 54.69 181.992 53.6647 181.992 52.5254V50.0381H188.044ZM183.895 53.0001C183.895 54.0824 183.762 55.1267 183.477 56.0571C183.305 56.6267 183.077 57.1963 182.83 57.633H185.932V51.7469H183.895V53.0001Z" fill="black"/>
<path d="M196.55 56.9495L195.884 59.3419H193.696L196.55 50.0381H199.309L202.202 59.3419H199.937L199.214 56.9495H196.55ZM198.91 55.3735L198.32 53.3988C198.148 52.8482 197.996 52.1647 197.844 51.595H197.825C197.692 52.1457 197.54 52.8482 197.387 53.3988L196.835 55.3735H198.91Z" fill="black"/>
</g>
<defs>
<filter id="filter0_d" x="0" y="0" width="208" height="89" filterUnits="userSpaceOnUse" color-interpolation-filters="sRGB">
<feFlood flood-opacity="0" result="BackgroundImageFix"/>
<feColorMatrix in="SourceAlpha" type="matrix" values="0 0 0 0 0 0 0 0 0 0 0 0 0 0 0 0 0 0 127 0"/>
<feOffset dy="4"/>
<feGaussianBlur stdDeviation="2"/>
<feColorMatrix type="matrix" values="0 0 0 0 0 0 0 0 0 0 0 0 0 0 0 0 0 0 0.25 0"/>
<feBlend mode="normal" in2="BackgroundImageFix" result="effect1_dropShadow"/>
<feBlend mode="normal" in="SourceGraphic" in2="effect1_dropShadow" result="shape"/>
</filter>
<linearGradient id="paint0_linear" x1="33.1246" y1="1.33301" x2="33.1246" y2="62.6621" gradientUnits="userSpaceOnUse">
<stop stop-color="#007BC2"/>
<stop offset="1" stop-color="#259EE3"/>
</linearGradient>
</defs>
</svg>
