<svg width="98" height="26" viewBox="0 0 98 26" fill="none" xmlns="http://www.w3.org/2000/svg">
<path d="M6.1 0H2.4C1.1 0 0 1.4 0 2.7V5H6.1V0Z" fill="url(#paint0_linear)"/>
<path d="M6.10005 0.299988H2.40005C1.40005 0.299988 0.300049 1.39999 0.300049 2.69999V4.99999H6.10005V0.299988Z" fill="url(#paint1_linear)"/>
<path d="M77 13.5L68.4 6.19998C67.3 5.19998 65.8 4.69998 64.4 4.69998H57.5H37.7H32.7H29.3H23.8H8.2H2.1C2.1 4.69998 0 4.59998 0 2.59998C0 4.39998 0 22 0 23.9C0 26 2.1 26 2.1 26H9.7H21.2H26.7H32.9H37.9H61.7H64.4C65.9 26 67.3 25.5 68.4 24.5L77 17.2C77.6 16.7 77.9 16 77.8 15.3C77.9 14.6 77.6 14 77 13.5Z" fill="url(#paint2_linear)"/>
<path d="M19.788 10.456V19H18.288V15.16H14.376V19H12.876V10.456H14.376V13.852H18.288V10.456H19.788ZM24.2482 12.628C25.1922 12.628 25.9442 12.924 26.5042 13.516C27.0642 14.108 27.3442 14.904 27.3442 15.904C27.3442 16.912 27.0642 17.712 26.5042 18.304C25.9522 18.896 25.2002 19.192 24.2482 19.192C23.2802 19.192 22.5122 18.896 21.9442 18.304C21.3762 17.712 21.0922 16.912 21.0922 15.904C21.0922 14.904 21.3762 14.108 21.9442 13.516C22.5202 12.924 23.2882 12.628 24.2482 12.628ZM25.4962 14.296C25.1922 13.904 24.7682 13.708 24.2242 13.708C23.6802 13.708 23.2522 13.904 22.9402 14.296C22.6282 14.688 22.4722 15.224 22.4722 15.904C22.4722 16.6 22.6282 17.144 22.9402 17.536C23.2522 17.928 23.6842 18.124 24.2362 18.124C24.7722 18.124 25.1922 17.928 25.4962 17.536C25.8082 17.136 25.9642 16.588 25.9642 15.892C25.9642 15.212 25.8082 14.68 25.4962 14.296ZM34.0254 17.248C34.0254 17.808 33.8254 18.24 33.4254 18.544C33.0334 18.848 32.4734 19 31.7454 19H28.4934V12.808H31.9134C32.4894 12.808 32.9374 12.94 33.2574 13.204C33.5854 13.468 33.7494 13.84 33.7494 14.32C33.7494 14.648 33.6774 14.912 33.5334 15.112C33.3894 15.312 33.1654 15.484 32.8614 15.628V15.652C33.6374 15.852 34.0254 16.384 34.0254 17.248ZM31.7454 16.264H29.8614V17.968H31.7454C32.3614 17.968 32.6694 17.688 32.6694 17.128C32.6694 16.856 32.5894 16.644 32.4294 16.492C32.2694 16.34 32.0414 16.264 31.7454 16.264ZM31.5654 13.84H29.8614V15.268H31.6014C32.1294 15.268 32.3934 15.02 32.3934 14.524C32.3934 14.068 32.1174 13.84 31.5654 13.84ZM36.8894 19H35.1614V12.808H36.5294V17.32H36.5654L38.8814 12.808H40.6094V19H39.2414V14.488H39.2054L36.8894 19ZM43.42 19H42.052V12.808H43.42V15.232H46.132V12.808H47.5V19H46.132V16.312H43.42V19ZM54.7267 19H53.0707L51.1267 16.228L50.3107 17.08V19H48.9427V12.808H50.3107V15.556L52.7827 12.808H54.4507L52.0387 15.292L54.7267 19ZM55.328 14.716C55.472 13.316 56.376 12.616 58.04 12.616C58.816 12.616 59.432 12.768 59.888 13.072C60.352 13.376 60.584 13.848 60.584 14.488V17.632C60.584 17.808 60.604 17.928 60.644 17.992C60.692 18.056 60.78 18.088 60.908 18.088C61.004 18.088 61.108 18.08 61.22 18.064V19.024C60.868 19.112 60.572 19.156 60.332 19.156C59.748 19.156 59.412 18.908 59.324 18.412C58.804 18.908 58.08 19.156 57.152 19.156C56.512 19.156 56.004 18.992 55.628 18.664C55.252 18.328 55.064 17.876 55.064 17.308C55.064 17.132 55.084 16.968 55.124 16.816C55.164 16.664 55.208 16.532 55.256 16.42C55.312 16.308 55.396 16.204 55.508 16.108C55.628 16.012 55.724 15.932 55.796 15.868C55.876 15.804 56 15.744 56.168 15.688C56.344 15.632 56.472 15.592 56.552 15.568C56.64 15.536 56.788 15.504 56.996 15.472C57.204 15.44 57.34 15.42 57.404 15.412C57.476 15.396 57.62 15.376 57.836 15.352C58.324 15.288 58.656 15.236 58.832 15.196C59.008 15.148 59.128 15.08 59.192 14.992C59.248 14.928 59.276 14.78 59.276 14.548C59.276 13.924 58.852 13.612 58.004 13.612C57.556 13.612 57.228 13.696 57.02 13.864C56.812 14.032 56.68 14.316 56.624 14.716H55.328ZM59.264 15.892C59.16 15.948 59.04 16 58.904 16.048C58.768 16.088 58.656 16.116 58.568 16.132C58.488 16.14 58.356 16.156 58.172 16.18C57.996 16.204 57.88 16.22 57.824 16.228C57.656 16.252 57.524 16.276 57.428 16.3C57.332 16.316 57.212 16.348 57.068 16.396C56.932 16.444 56.824 16.504 56.744 16.576C56.672 16.64 56.608 16.732 56.552 16.852C56.496 16.964 56.468 17.1 56.468 17.26C56.468 17.556 56.564 17.784 56.756 17.944C56.956 18.104 57.232 18.184 57.584 18.184C58.192 18.184 58.66 18.02 58.988 17.692C59.172 17.508 59.264 17.152 59.264 16.624V15.892Z" fill="white"/>
<defs>
<linearGradient id="paint0_linear" x1="0.00238571" y1="4.0068" x2="3.8997" y2="2.5907" gradientUnits="userSpaceOnUse">
<stop offset="0.2917" stop-color="#088634"/>
<stop offset="0.6458" stop-color="#049435"/>
<stop offset="1" stop-color="#088634"/>
</linearGradient>
<linearGradient id="paint1_linear" x1="3.87415" y1="0.269688" x2="2.84965" y2="5.37749" gradientUnits="userSpaceOnUse">
<stop stop-color="#12AF48"/>
<stop offset="0.2695" stop-color="#0F963D"/>
<stop offset="0.8092" stop-color="#077A2E"/>
</linearGradient>
<linearGradient id="paint2_linear" x1="1.702" y1="20.792" x2="91.5848" y2="5.42048" gradientUnits="userSpaceOnUse">
<stop stop-color="#078633"/>
<stop offset="0.1198" stop-color="#128B3B"/>
<stop offset="0.2512" stop-color="#0B9D3D"/>
<stop offset="0.4531" stop-color="#13B049"/>
<stop offset="0.5864" stop-color="#0AA43F"/>
<stop offset="0.741" stop-color="#0AA43F"/>
<stop offset="0.8526" stop-color="#09963A"/>
<stop offset="1" stop-color="#078633"/>
</linearGradient>
</defs>
</svg>
