<svg width="11" height="17" viewBox="0 0 11 17" fill="none" xmlns="http://www.w3.org/2000/svg">
<g opacity="0.6">
<path d="M5.30763 9.19972C2.76721 9.19972 0.707755 7.14029 0.707755 4.59984C0.707755 2.05939 2.76718 0 5.30763 0C7.84808 0 9.90747 2.05942 9.90747 4.59987C9.90435 7.139 7.84675 9.1966 5.30763 9.19972ZM5.30763 2.12301C3.93971 2.12301 2.83077 3.23192 2.83077 4.59987C2.83077 5.96782 3.93968 7.07673 5.30763 7.07673C6.67558 7.07673 7.78449 5.96782 7.78449 4.59987C7.78449 3.23192 6.67555 2.12301 5.30763 2.12301Z" fill="#060606"/>
<path d="M0.801868 11.3794C0.301966 11.0501 0.000762939 10.4918 6.67572e-05 9.89325C-0.00689983 9.39647 0.273438 8.94029 0.719768 8.72205C1.17834 8.49299 1.72727 8.54458 2.13512 8.8551C4.02537 10.2332 6.58914 10.2332 8.47938 8.8551C8.88786 8.5462 9.43583 8.49469 9.89474 8.72205C10.3409 8.94025 10.6213 9.39594 10.6151 9.89252C10.6141 10.491 10.313 11.0491 9.81333 11.3786C9.17231 11.8049 8.47424 12.1385 7.73984 12.3694C7.61528 12.4081 7.48674 12.4439 7.35415 12.477L9.49272 14.5681C10.0537 15.1125 10.0673 16.0085 9.52298 16.5695C8.97865 17.1305 8.08264 17.1441 7.5216 16.5998C7.50993 16.5884 7.49845 16.5769 7.48717 16.5652L5.30753 14.3091L3.12365 16.5694C2.57979 17.1308 1.68375 17.1451 1.12231 16.6012C0.560874 16.0574 0.54661 15.1613 1.09047 14.5999C1.10184 14.5882 1.11342 14.5766 1.1252 14.5653L3.26025 12.4762C3.1277 12.4423 2.99866 12.4062 2.87317 12.368C2.13957 12.1379 1.44216 11.8051 0.801868 11.3794Z" fill="#060606"/>
</g>
</svg>
