<svg width="20" height="20" viewBox="0 0 20 20" fill="none" xmlns="http://www.w3.org/2000/svg">
<path d="M15.4076 19C14.6513 19 13.7437 18.7731 12.7605 18.4706C10.5672 17.6387 8.22269 16.0504 6.10504 13.9328C3.9874 11.8151 2.32353 9.47059 1.56723 7.27731C0.810924 5.31092 0.810924 3.64706 1.56723 2.89076C1.64286 2.7395 1.71849 2.58824 1.86975 2.51261C2.55042 1.7563 3.30672 1 4.28992 1C4.97059 1 5.65126 1.45378 6.33193 2.36134C8.37395 4.93277 7.46639 5.84034 6.40756 6.89916L6.2563 7.05042C6.10504 7.20168 5.72689 8.03361 8.82773 11.1345C9.81092 12.1176 10.7185 12.8739 11.3992 13.3277C11.8529 13.6303 12.6092 14.0084 12.9118 13.7059L13.1387 13.479C14.1975 12.4202 15.105 11.5126 17.6765 13.5546C18.5084 14.2353 18.9622 14.916 19.0378 15.5966C19.1134 16.5798 18.2815 17.4118 17.5252 18.0924C17.374 18.1681 17.2983 18.3193 17.2227 18.395C16.7689 18.7731 16.1639 19 15.4076 19ZM4.21429 1.60504C3.45798 1.60504 2.85294 2.28571 2.2479 2.89076C2.17227 3.04202 2.02101 3.11765 1.94538 3.26891C1.41597 3.79832 1.41597 5.23529 2.09664 6.97479C2.85294 9.09244 4.44118 11.3613 6.55882 13.4034C8.60084 15.4454 10.9454 17.0336 12.9874 17.8655C14.6513 18.4706 16.1639 18.5462 16.6933 18.0168C16.7689 17.9412 16.9202 17.7899 17.0714 17.7143C17.6765 17.1092 18.4328 16.4286 18.3571 15.7479C18.3571 15.2185 17.979 14.6891 17.2227 14.084C15.105 12.3445 14.5 12.9496 13.5168 14.0084L13.2899 14.2353C12.8361 14.6891 12.0798 14.6134 11.021 13.9328C10.2647 13.479 9.43277 12.7227 8.37395 11.6639C5.80252 9.09244 4.97059 7.5042 5.80252 6.7479L6.02941 6.59664C7.01261 5.46218 7.61765 4.85714 5.95378 2.7395C5.34874 1.98319 4.81933 1.60504 4.21429 1.60504C4.28992 1.60504 4.28992 1.60504 4.21429 1.60504Z" fill="#007BC2"/>
<path d="M4.21429 1.60504C3.45798 1.60504 2.85294 2.28571 2.2479 2.89076C2.17227 3.04202 2.02101 3.11765 1.94538 3.26891C1.41597 3.79832 1.41597 5.23529 2.09664 6.97479C2.85294 9.09244 4.44118 11.3613 6.55882 13.4034C8.60084 15.4454 10.9454 17.0336 12.9874 17.8655C14.6513 18.4706 16.1639 18.5462 16.6933 18.0168C16.7689 17.9412 16.9202 17.7899 17.0714 17.7143C17.6765 17.1092 18.4328 16.4286 18.3571 15.7479C18.3571 15.2185 17.979 14.6891 17.2227 14.084C15.105 12.3445 14.5 12.9496 13.5168 14.0084L13.2899 14.2353C12.8361 14.6891 12.0798 14.6134 11.021 13.9328C10.2647 13.479 9.43277 12.7227 8.37395 11.6639C5.80252 9.09244 4.97059 7.5042 5.80252 6.7479L6.02941 6.59664C7.01261 5.46219 7.61765 4.85714 5.95378 2.7395C5.34874 1.98319 4.81933 1.60504 4.21429 1.60504ZM4.21429 1.60504C4.28992 1.60504 4.28992 1.60504 4.21429 1.60504ZM15.4076 19C14.6513 19 13.7437 18.7731 12.7605 18.4706C10.5672 17.6387 8.22269 16.0504 6.10504 13.9328C3.9874 11.8151 2.32353 9.47059 1.56723 7.27731C0.810924 5.31092 0.810924 3.64706 1.56723 2.89076C1.64286 2.7395 1.71849 2.58824 1.86975 2.51261C2.55042 1.7563 3.30672 1 4.28992 1C4.97059 1 5.65126 1.45378 6.33193 2.36134C8.37395 4.93277 7.46639 5.84034 6.40756 6.89916L6.2563 7.05042C6.10504 7.20168 5.72689 8.03361 8.82773 11.1345C9.81092 12.1176 10.7185 12.8739 11.3992 13.3277C11.8529 13.6303 12.6092 14.0084 12.9118 13.7059L13.1387 13.479C14.1975 12.4202 15.105 11.5126 17.6765 13.5546C18.5084 14.2353 18.9622 14.916 19.0378 15.5966C19.1134 16.5798 18.2815 17.4118 17.5252 18.0924C17.374 18.1681 17.2983 18.3193 17.2227 18.395C16.7689 18.7731 16.1639 19 15.4076 19Z" stroke="#007BC2"/>
</svg>
