<svg width="22" height="22" viewBox="0 0 22 22" fill="none" xmlns="http://www.w3.org/2000/svg">
<g clip-path="url(#clip0)">
<path d="M10.9363 0C7.35863 0 4.44824 2.91039 4.44824 6.48802C4.44824 10.0657 7.35863 12.976 10.9363 12.976C14.5139 12.976 17.4243 10.0657 17.4243 6.48802C17.4243 2.91039 14.5139 0 10.9363 0ZM10.9363 11.0678C8.41101 11.0678 6.35648 9.01328 6.35648 6.48802C6.35648 3.96277 8.41101 1.90824 10.9363 1.90824C13.4615 1.90824 15.5161 3.96277 15.5161 6.48802C15.5161 9.01328 13.4615 11.0678 10.9363 11.0678Z" fill="#060606"/>
<path d="M10.9361 11.4729C5.54035 11.4729 1.25 15.6063 0.798143 21.0463C0.754523 21.5715 1.18596 22.0001 1.71291 22.0001C2.23985 22.0001 2.66192 21.5715 2.71247 21.047C3.13962 16.615 6.5321 13.3811 10.9361 13.3811C15.3401 13.3811 18.7325 16.6153 19.1597 21.047C19.2103 21.5715 19.6323 22.0001 20.1593 22.0001C20.6862 22.0001 21.1176 21.5715 21.074 21.0463C20.6222 15.6064 16.3318 11.4729 10.9361 11.4729Z" fill="#060606"/>
</g>
<defs>
<clipPath id="clip0">
<rect width="22" height="22" fill="white"/>
</clipPath>
</defs>
</svg>
