<svg width="170" height="26" viewBox="0 0 170 26" fill="none" xmlns="http://www.w3.org/2000/svg">
<g clip-path="url(#clip0)">
<path d="M6.20379 -8.56776e-05H2.45735C1.08768 -8.56776e-05 0 1.38923 0 2.69915V5.04114H6.20379V-8.56776e-05Z" fill="url(#paint0_linear)"/>
<path d="M6.20378 0.277777H2.45734C1.49051 0.277777 0.322266 1.34953 0.322266 2.69915V5.04114H6.20378V0.277777V0.277777Z" fill="url(#paint1_linear)"/>
<path d="M103 14.2505C102.436 14.8856 102.436 15.8779 103 16.513L110.291 24.9283C110.453 25.1268 110.493 25.4047 110.372 25.6031C110.291 25.8413 110.05 26.0001 109.808 26.0001L33.0735 26.0001H29.1659H2.09479C2.09479 26.0001 0 26.0398 0 23.8963C0 21.9512 0 4.36648 0 2.61992C0 4.64435 2.09479 4.72374 2.09479 4.72374H28.8436H32.7512H109.768C110.009 4.72374 110.251 4.88251 110.372 5.08099C110.493 5.31916 110.453 5.59702 110.291 5.7558L103 14.2505Z" fill="url(#paint2_linear)"/>
</g>
<path d="M12.924 10.456H16.632C17.552 10.456 18.276 10.676 18.804 11.116C19.34 11.548 19.608 12.196 19.608 13.06C19.608 13.876 19.36 14.524 18.864 15.004C18.368 15.476 17.692 15.712 16.836 15.712H14.424V19H12.924V10.456ZM14.424 11.704V14.5H16.512C17.6 14.5 18.144 14.032 18.144 13.096C18.144 12.168 17.556 11.704 16.38 11.704H14.424ZM26.2679 17.068C26.1159 17.74 25.7839 18.264 25.2719 18.64C24.7679 19.016 24.1639 19.204 23.4599 19.204C22.5239 19.204 21.7799 18.904 21.2279 18.304C20.6839 17.696 20.4119 16.92 20.4119 15.976C20.4119 15.008 20.6919 14.208 21.2519 13.576C21.8199 12.944 22.5399 12.628 23.4119 12.628C24.3159 12.628 25.0319 12.94 25.5599 13.564C26.0879 14.18 26.3519 15.024 26.3519 16.096V16.24H21.7799C21.7959 16.864 21.9519 17.348 22.2479 17.692C22.5439 18.028 22.9559 18.196 23.4839 18.196C23.8599 18.196 24.1639 18.108 24.3959 17.932C24.6359 17.748 24.8239 17.46 24.9599 17.068H26.2679ZM24.9839 15.328C24.9439 14.808 24.7799 14.4 24.4919 14.104C24.2119 13.8 23.8479 13.648 23.3999 13.648C22.9519 13.648 22.5879 13.792 22.3079 14.08C22.0359 14.368 21.8679 14.784 21.8039 15.328H24.9839ZM33.1759 19H31.5199L29.5759 16.228L28.7599 17.08V19H27.3919V12.808H28.7599V15.556L31.2319 12.808H32.8999L30.4879 15.292L33.1759 19ZM36.5646 12.628C37.5086 12.628 38.2606 12.924 38.8206 13.516C39.3806 14.108 39.6606 14.904 39.6606 15.904C39.6606 16.912 39.3806 17.712 38.8206 18.304C38.2686 18.896 37.5166 19.192 36.5646 19.192C35.5966 19.192 34.8286 18.896 34.2606 18.304C33.6926 17.712 33.4086 16.912 33.4086 15.904C33.4086 14.904 33.6926 14.108 34.2606 13.516C34.8366 12.924 35.6046 12.628 36.5646 12.628ZM37.8126 14.296C37.5086 13.904 37.0846 13.708 36.5406 13.708C35.9966 13.708 35.5686 13.904 35.2566 14.296C34.9446 14.688 34.7886 15.224 34.7886 15.904C34.7886 16.6 34.9446 17.144 35.2566 17.536C35.5686 17.928 36.0006 18.124 36.5526 18.124C37.0886 18.124 37.5086 17.928 37.8126 17.536C38.1246 17.136 38.2806 16.588 38.2806 15.892C38.2806 15.212 38.1246 14.68 37.8126 14.296ZM42.1298 19H40.8098V12.808H42.6098L44.3378 17.728H44.3618L46.0298 12.808H47.8298V19H46.5098V14.884H46.4858L45.0098 19H43.6298L42.1538 14.884H42.1298V19ZM54.8031 17.068C54.6511 17.74 54.3191 18.264 53.8071 18.64C53.3031 19.016 52.6991 19.204 51.9951 19.204C51.0591 19.204 50.3151 18.904 49.7631 18.304C49.2191 17.696 48.9471 16.92 48.9471 15.976C48.9471 15.008 49.2271 14.208 49.7871 13.576C50.3551 12.944 51.0751 12.628 51.9471 12.628C52.8511 12.628 53.5671 12.94 54.0951 13.564C54.6231 14.18 54.8871 15.024 54.8871 16.096V16.24H50.3151C50.3311 16.864 50.4871 17.348 50.7831 17.692C51.0791 18.028 51.4911 18.196 52.0191 18.196C52.3951 18.196 52.6991 18.108 52.9311 17.932C53.1711 17.748 53.3591 17.46 53.4951 17.068H54.8031ZM53.5191 15.328C53.4791 14.808 53.3151 14.4 53.0271 14.104C52.7471 13.8 52.3831 13.648 51.9351 13.648C51.4871 13.648 51.1231 13.792 50.8431 14.08C50.5711 14.368 50.4031 14.784 50.3391 15.328H53.5191ZM57.295 19H55.927V12.808H57.295V15.232H60.007V12.808H61.375V19H60.007V16.312H57.295V19ZM69.1777 20.968H67.8817V19H63.4777V20.968H62.1817V17.92H62.9617C63.4497 16.776 63.6937 15.304 63.6937 13.504V12.808H68.3497V17.92H69.1777V20.968ZM67.0057 17.92V13.864H65.0017V14.284C65.0017 14.932 64.9337 15.612 64.7977 16.324C64.6617 17.028 64.5177 17.56 64.3657 17.92H67.0057ZM75.473 12.808L73.181 18.88C73.157 18.936 73.113 19.052 73.049 19.228C72.985 19.412 72.941 19.536 72.917 19.6C72.893 19.664 72.845 19.776 72.773 19.936C72.709 20.096 72.657 20.208 72.617 20.272C72.577 20.336 72.517 20.432 72.437 20.56C72.357 20.688 72.281 20.78 72.209 20.836C72.145 20.892 72.061 20.96 71.957 21.04C71.861 21.128 71.761 21.188 71.657 21.22C71.553 21.26 71.433 21.292 71.297 21.316C71.169 21.348 71.029 21.364 70.877 21.364C70.621 21.364 70.305 21.34 69.929 21.292V20.14C70.217 20.196 70.457 20.224 70.649 20.224C70.745 20.224 70.833 20.208 70.913 20.176C70.993 20.152 71.065 20.104 71.129 20.032C71.193 19.968 71.249 19.904 71.297 19.84C71.345 19.784 71.389 19.7 71.429 19.588C71.477 19.484 71.513 19.4 71.537 19.336C71.561 19.28 71.593 19.188 71.633 19.06C71.673 18.932 71.697 18.852 71.705 18.82L69.329 12.808H70.829L72.485 17.368L74.045 12.808H75.473ZM81.639 17.068C81.487 17.74 81.155 18.264 80.643 18.64C80.139 19.016 79.535 19.204 78.831 19.204C77.895 19.204 77.151 18.904 76.599 18.304C76.055 17.696 75.783 16.92 75.783 15.976C75.783 15.008 76.063 14.208 76.623 13.576C77.191 12.944 77.911 12.628 78.783 12.628C79.687 12.628 80.403 12.94 80.931 13.564C81.459 14.18 81.723 15.024 81.723 16.096V16.24H77.151C77.167 16.864 77.323 17.348 77.619 17.692C77.915 18.028 78.327 18.196 78.855 18.196C79.231 18.196 79.535 18.108 79.767 17.932C80.007 17.748 80.195 17.46 80.331 17.068H81.639ZM80.355 15.328C80.315 14.808 80.151 14.4 79.863 14.104C79.583 13.8 79.219 13.648 78.771 13.648C78.323 13.648 77.959 13.792 77.679 14.08C77.407 14.368 77.239 14.784 77.175 15.328H80.355ZM84.083 19H82.763V12.808H84.563L86.291 17.728H86.315L87.983 12.808H89.783V19H88.463V14.884H88.439L86.963 19H85.583L84.107 14.884H84.083V19Z" fill="white"/>
<defs>
<linearGradient id="paint0_linear" x1="3.24112" y1="3.51218" x2="2.33032" y2="-2.86993" gradientUnits="userSpaceOnUse">
<stop stop-color="#CC3600"/>
<stop offset="0.1075" stop-color="#D04000"/>
<stop offset="0.2871" stop-color="#DC5900"/>
<stop offset="0.5151" stop-color="#EE8300"/>
<stop offset="0.6972" stop-color="#FFA900"/>
</linearGradient>
<linearGradient id="paint1_linear" x1="1.35407" y1="5.81737" x2="5.12504" y2="0.977032" gradientUnits="userSpaceOnUse">
<stop stop-color="#CC3600"/>
<stop offset="0.4271" stop-color="#E77200"/>
<stop offset="0.7574" stop-color="#F89A00"/>
<stop offset="0.9285" stop-color="#FFA900"/>
</linearGradient>
<linearGradient id="paint2_linear" x1="2.20778" y1="4.42428" x2="168.573" y2="26.8808" gradientUnits="userSpaceOnUse">
<stop stop-color="#FFA300"/>
<stop offset="0.2158" stop-color="#FFA800"/>
<stop offset="0.4045" stop-color="#FFB200"/>
<stop offset="0.6464" stop-color="#FFC100"/>
<stop offset="0.8526" stop-color="#FFC700"/>
<stop offset="1" stop-color="#FFB800"/>
</linearGradient>
<clipPath id="clip0">
<rect width="170" height="26" fill="white" transform="matrix(1 0 0 -1 0 26)"/>
</clipPath>
</defs>
</svg>
