<svg width="19" height="18" viewBox="0 0 19 18" fill="none" xmlns="http://www.w3.org/2000/svg">
<g clip-path="url(#clip0)">
<path d="M15.861 2.63191C14.1605 0.938455 11.9026 0 9.49647 0C7.09741 0 4.83242 0.938455 3.13191 2.63191C1.43846 4.33242 0.5 6.59741 0.5 8.99647C0.5 11.4026 1.43846 13.6605 3.13191 15.361C4.83242 17.0615 7.09036 17.9929 9.49647 17.9929C11.9026 17.9929 14.1605 17.0545 15.861 15.361C17.5615 13.6605 18.4929 11.4026 18.4929 8.99647C18.5 6.59741 17.5615 4.33242 15.861 2.63191ZM9.49647 16.4406C7.50666 16.4406 5.63681 15.6644 4.23265 14.2673C2.8285 12.842 2.05233 10.9722 2.05233 9.00353C2.05233 7.03489 2.8285 5.16503 4.23265 3.73971C5.63681 2.3285 7.50666 1.55939 9.49647 1.55939C11.4863 1.55939 13.3561 2.33555 14.7603 3.73971C16.1644 5.13681 16.9406 7.00666 16.9406 8.99647C16.9406 10.9863 16.1644 12.8561 14.7603 14.2603C13.3561 15.6644 11.4863 16.4406 9.49647 16.4406Z" fill="#007BC2"/>
<path d="M13.8923 8.21325H10.2866V3.7891C10.2866 3.34457 9.94086 2.99883 9.49633 2.99883C9.0518 2.99883 8.70605 3.34457 8.70605 3.7891V8.99647C8.70605 9.42689 9.06591 9.78675 9.49633 9.78675H13.8923C14.3368 9.78675 14.6825 9.441 14.6825 8.99647C14.6825 8.559 14.3368 8.21325 13.8923 8.21325Z" fill="#007BC2"/>
</g>
<defs>
<clipPath id="clip0">
<rect width="18" height="18" fill="white" transform="translate(0.5)"/>
</clipPath>
</defs>
</svg>
