<svg width="19" height="19" viewBox="0 0 19 19" fill="none" xmlns="http://www.w3.org/2000/svg">
<path opacity="0.4" d="M18.7679 17.6526L14.202 13.0819C15.3362 11.7005 16.0148 9.93138 16.0148 8.00714C16.0148 3.58674 12.4279 0 8.0074 0C3.582 0 0 3.58674 0 8.00714C0 12.4276 3.582 16.0143 8.0074 16.0143C9.93654 16.0143 11.7009 15.3357 13.0775 14.2015L17.6434 18.7673C17.9536 19.0776 18.4529 19.0776 18.7631 18.7673C19.0782 18.462 19.0782 17.9579 18.7679 17.6526ZM8.0074 14.4196C4.46902 14.4196 1.58985 11.5406 1.58985 8.00714C1.58985 4.47372 4.46902 1.5898 8.0074 1.5898C11.5458 1.5898 14.4249 4.46888 14.4249 8.00714C14.4249 11.5454 11.5458 14.4196 8.0074 14.4196Z" fill="#1B1B1B"/>
</svg>
