<svg width="22" height="13" viewBox="0 0 22 13" fill="none" xmlns="http://www.w3.org/2000/svg">
<path opacity="0.6" d="M0.662865 0.596105H3.7878C3.7878 0.596105 4.28495 0.596105 4.56903 1.40277C4.85312 2.13611 6.20252 4.92277 6.91274 5.58277C7.55193 6.24277 8.1201 6.5361 8.33316 4.92277C8.54623 3.30944 8.26214 2.28277 8.26214 2.28277C8.26214 2.28277 8.33316 1.25611 7.33886 0.889439C7.33886 0.889439 6.91274 1.03611 7.1258 0.669439C7.33886 0.302772 8.19112 -0.0638946 9.4695 0.00943868C10.7479 0.082772 12.3814 -0.0638946 12.3814 0.889439C12.3814 1.84277 12.3814 4.7761 12.3814 4.7761C12.3814 4.7761 12.4524 6.7561 13.3047 6.02277C14.1569 5.28944 15.3643 3.0161 15.8614 1.91611C16.2875 0.742772 16.1455 0.669439 17.708 0.669439C19.2704 0.669439 20.0517 0.669439 20.0517 0.669439C20.0517 0.669439 21.8982 0.449439 21.046 1.98944C20.1937 3.60277 17.921 6.60944 17.921 6.60944C17.921 6.60944 17.5659 7.12277 17.85 7.56277C18.2051 8.00277 20.2647 10.0561 20.2647 10.1294C20.2647 10.2028 21.8982 11.9628 20.8329 12.4028C20.8329 12.4028 20.4778 12.5494 19.6966 12.5494C18.9864 12.5494 17.3529 12.5494 17.3529 12.5494C17.3529 12.5494 16.7137 12.6961 15.7904 12.0361C14.7961 11.3028 13.4467 8.80944 12.8785 9.98277C12.8785 9.98277 12.3814 10.5694 12.4524 11.5961C12.4524 12.6228 11.6712 12.5494 11.3871 12.5494C11.103 12.5494 9.75359 12.4761 9.75359 12.4761C9.75359 12.4761 8.1201 12.4761 6.34457 11.0828C4.56903 9.68944 3.21963 7.34277 3.21963 7.34277C3.21963 7.34277 1.16001 4.11611 0.733886 2.72277L0.0236738 1.25611C0.0236738 1.25611 -0.18939 0.522772 0.662865 0.596105Z" fill="#060606"/>
</svg>
