<svg xmlns="http://www.w3.org/2000/svg" width="27" height="16" viewBox="0 0 27 16">
  <defs>
    <style>
      .cls-1 {
        fill: #ffd22e;
        fill-rule: evenodd;
      }
    </style>
  </defs>
  <path id="Icon_hover_" data-name="Icon (hover)" class="cls-1" d="M522.709,109.232q-13.206-14.471-26.419,0a1.154,1.154,0,0,0,0,1.532q13.208,14.469,26.419,0A1.154,1.154,0,0,0,522.709,109.232ZM509.5,115.141A5.144,5.144,0,1,1,514.563,110,5.1,5.1,0,0,1,509.5,115.141ZM512.313,110a2.813,2.813,0,1,1-2.813-2.856A2.836,2.836,0,0,1,512.313,110Z" transform="translate(-496 -102)"/>
</svg>
