<svg xmlns="http://www.w3.org/2000/svg" width="31" height="31" viewBox="0 0 31 31">
  <defs>
    <style>
      .cls-1 {
        fill: #1e1c27;
        fill-rule: evenodd;
      }
    </style>
  </defs>
  <path id="Фигура_506" data-name="Фигура 506" class="cls-1" d="M796.526,5375.33a5.16,5.16,0,1,0,5.125,5.2A5.154,5.154,0,0,0,796.526,5375.33Zm15.4-.92a11.842,11.842,0,0,0-.859-4.38,7.926,7.926,0,0,0-5.588-4.62,15.013,15.013,0,0,0-3.6-.38c-3.248-.03-6.5-0.06-9.746-0.04a19.579,19.579,0,0,0-4.58.41,7.929,7.929,0,0,0-6.249,6.69,21.18,21.18,0,0,0-.284,3.55c-0.043,3.05-.05,6.09-0.022,9.14a19.244,19.244,0,0,0,.407,4.64,7.949,7.949,0,0,0,6.718,6.26c0.971,0.18,1.975.18,2.964,0.27a2.9,2.9,0,0,1,.291.05H801.6c0.322-.03.644-0.06,0.966-0.07a11.86,11.86,0,0,0,4.288-.82,7.929,7.929,0,0,0,4.713-5.66,16.571,16.571,0,0,0,.384-3.56,1.755,1.755,0,0,1,.049-0.29v-10.22C811.976,5375.05,811.943,5374.73,811.93,5374.41Zm-15.46,14.05a7.975,7.975,0,1,1,7.992-7.94A7.969,7.969,0,0,1,796.47,5388.46Zm8.875-15.3a1.875,1.875,0,1,1,1.869-1.88A1.89,1.89,0,0,1,805.345,5373.16Z" transform="translate(-781 -5365)"/>
</svg>
