<svg xmlns="http://www.w3.org/2000/svg" width="100" height="51" viewBox="0 0 100 51">
  <defs>
    <style>
      .cls-1 {
        fill: #fff;
        fill-rule: evenodd;
      }
    </style>
  </defs>
  <path id="Logo" class="cls-1" d="M136.06,86.285c0-3.323-1.037-6.391-6.246-6.391s-7.029,2.283-7.029,7.89a12.823,12.823,0,0,0,.853,4.845c1.221,2.353,3.872,2.838,6.706,2.838a16.067,16.067,0,0,0,4.54-.555V92.145c-1.912.393-5.738,0.646-6.96,0s-1.544-1.776-1.544-3.553h9.426A17.353,17.353,0,0,0,136.06,86.285Zm-3.48-.117h-6.154a3.159,3.159,0,0,1,3.342-3.437C133.34,82.731,132.58,86.168,132.58,86.168Zm-11.639,6.2V95.2h-4.736l-4.978-7.821V84.508h2.593c2.4,0,2.789-1.546,2.789-3.621s-0.692-3.484-2.766-3.484h-4.886v9.978h-0.011V92.4h2.281v2.8H103V92.4h2.282V77.171H103v-2.8h11.546c2.385,0,5.739.623,5.739,6.505s-3.146,6.16-5.29,6.472c0.45,0.727,3.492,5.018,3.492,5.018h2.454Zm44.912-.745c0,0.516.074,1.216,0.736,1.216,2.1,0,3.385-7.146,3.385-7.146a0.955,0.955,0,0,0-.515-0.22C166.589,85.469,165.853,91.1,165.853,91.619Zm1.876-22.284c0-.846.037-2.026-0.883-2.026-3.127,0-8.021,17.717-8.021,17.717C168.06,76,167.729,70.183,167.729,69.334Zm23.4-.037c0-.957-0.184-1.989-0.81-1.989-2.906,0-7.469,15.544-7.469,15.544C191.461,74.64,191.13,70.256,191.13,69.3Zm-6.77,17.128c-0.405.11-.883,0.883-0.883,2.173,0,1.841.7,2.394,0.7,2.394a8.363,8.363,0,0,0,.809-3.352A1.046,1.046,0,0,0,184.36,86.426ZM172.408,58c-16.895,0-30.592,10.618-30.592,23.716,0,7.718,4.759,14.573,12.122,18.9a15.059,15.059,0,0,1-1.755,7.107c-0.445.941-.048,1.646,1.757,1.058a33.5,33.5,0,0,0,9.322-4.431,38.8,38.8,0,0,0,9.146,1.079c16.9,0,30.592-10.618,30.592-23.717S189.3,58,172.408,58Zm14.38,34.687a8.31,8.31,0,0,1-6.586,3.058c-4.231,0-3.579-4.305-3.421-5.562-0.626.663-5.409,5.562-7.4,5.562-1.472,0-1.251-2.58-1.178-2.948-0.367.626-1.618,2.948-4.084,2.948s-2.843-3.993-2.612-5.342c-0.662.663-4.93,5.194-7.653,5.194-1.472,0-1.582-1.547-1.582-2.174s4.746-27.625,14.2-27.625c1.582,0,2.134,1.732,2.134,3.242s0.221,6.74-10.155,17.2c0,0-1.214,4.788-1.214,5.3a0.778,0.778,0,0,0,.7.883c0.957-.074,3.68-2.763,3.68-2.763s0.883-6.3,5.7-6.3a5.661,5.661,0,0,1,3.017,1.178s0.257-.957.4-1.289c0.405,0.111,4.195,1.252,4.195,1.252S172.7,91.067,172.7,91.8c0,0.589.221,0.553,0.368,0.553s1.251-.442,3.79-2.91c0.037-.589,4.231-23.647,12.841-23.647,1.808,0,2.355,1.732,2.355,3.426s0.11,5.71-9.567,14.845a56.363,56.363,0,0,0-1.949,8.987c0,1.032.367,1.363,0.7,1.363a5.253,5.253,0,0,0,2.723-2.91,4.127,4.127,0,0,1-1.214-3.241c0-1.732.773-4.973,3.79-4.973,2.575,0,2.722,3.02,2.722,3.5a8.012,8.012,0,0,1-2.023,5.267c0.4,0.037,1.361.331,4.82-3.021a0.776,0.776,0,0,1,.22.3S189.916,92.5,186.788,92.688Z" transform="translate(-103 -58)"/>
</svg>
