<svg xmlns="http://www.w3.org/2000/svg" width="47" height="39" viewBox="0 0 47 39">
  <defs>
    <style>
      .cls-1 {
        fill: #ffd22e;
        fill-rule: evenodd;
      }
    </style>
  </defs>
  <path id="Фигура_506" data-name="Фигура 506" class="cls-1" d="M766.056,1033.34l5.141-8.26a3.087,3.087,0,0,0,.462-1.62v-4.54a1.941,1.941,0,0,1,1.812-1.93c2.792-.18,7.6,1.04,5.381,12.41H790.1a4.852,4.852,0,0,1,4.9,4.81c0,5.11-.939,13.35-6.073,19.79a5.182,5.182,0,0,1-3.792,1.9c-3.8.19-11.719,0.3-17.473-1.6a2.917,2.917,0,0,1-2.036-2.75v-16.7A2.834,2.834,0,0,1,766.056,1033.34Zm-7.286.52h-7.833a2.9,2.9,0,0,0-2.937,2.88v16.36a2.909,2.909,0,0,0,2.937,2.89h7.833a2.91,2.91,0,0,0,2.938-2.89v-16.36A2.9,2.9,0,0,0,758.77,1033.86Zm-3.916,17.32a1.925,1.925,0,1,1,1.958-1.93A1.951,1.951,0,0,1,754.854,1051.18Z" transform="translate(-748 -1017)"/>
</svg>
