<svg xmlns="http://www.w3.org/2000/svg" width="46" height="44" viewBox="0 0 46 44">
  <defs>
    <style>
      .cls-1 {
        fill: #ffd22e;
        fill-rule: evenodd;
      }
    </style>
  </defs>
  <path id="Фигура_505" data-name="Фигура 505" class="cls-1" d="M501.73,1016.69l5.763,11.91,11.8,1.23a2.941,2.941,0,0,1,1.6,5.22l-9.4,7.59,2.913,12.74a3.01,3.01,0,0,1-4.517,3.18L499,1052.07l-10.894,6.49a3.01,3.01,0,0,1-4.517-3.18l2.913-12.74-9.4-7.59a2.941,2.941,0,0,1,1.6-5.22l11.8-1.23,5.763-11.91A3.047,3.047,0,0,1,501.73,1016.69Z" transform="translate(-476 -1015)"/>
</svg>
