<svg xmlns="http://www.w3.org/2000/svg" width="33.156" height="27.25" viewBox="0 0 33.156 27.25">
  <defs>
    <style>
      .cls-1 {
        fill: #1e1c27;
        fill-rule: evenodd;
      }
    </style>
  </defs>
  <path id="Twitter_Icon_" data-name="Twitter Icon " class="cls-1" d="M613.166,5371.11a13.189,13.189,0,0,1-3.907,1.08,6.859,6.859,0,0,0,2.991-3.8,13.534,13.534,0,0,1-4.321,1.67,6.745,6.745,0,0,0-4.966-2.17,6.84,6.84,0,0,0-6.8,6.87,7.035,7.035,0,0,0,.176,1.57,19.255,19.255,0,0,1-14.022-7.18,6.922,6.922,0,0,0,2.106,9.17,6.585,6.585,0,0,1-3.081-.86v0.09a6.859,6.859,0,0,0,5.457,6.74,7.044,7.044,0,0,1-1.792.24,6.751,6.751,0,0,1-1.28-.13,6.832,6.832,0,0,0,6.355,4.78,13.583,13.583,0,0,1-8.45,2.94,12.457,12.457,0,0,1-1.624-.1,19.117,19.117,0,0,0,10.43,3.09c12.514,0,19.357-10.47,19.357-19.55,0-.3-0.007-0.59-0.02-0.89a13.871,13.871,0,0,0,3.4-3.56h0Z" transform="translate(-580 -5367.88)"/>
</svg>
