<svg xmlns="http://www.w3.org/2000/svg" width="37.969" height="21" viewBox="0 0 37.969 21">
  <defs>
    <style>
      .cls-1 {
        fill: #1e1c27;
        fill-rule: evenodd;
      }
    </style>
  </defs>
  <path id="VK" class="cls-1" d="M474,5369.52a1.159,1.159,0,0,1,.953-0.53c0.2-.01.4-0.03,0.592-0.03,1.608-.01,3.217-0.01,4.825-0.02a1.773,1.773,0,0,1,1.737,1.09q1.441,2.91,2.979,5.78a6.5,6.5,0,0,0,1.716,2.1,2.117,2.117,0,0,0,.569.32,0.772,0.772,0,0,0,1.044-.38,4.976,4.976,0,0,0,.466-1.98,14.225,14.225,0,0,0-.163-4.68,1.969,1.969,0,0,0-1.706-1.62c-0.473-.09-0.5-0.21-0.171-0.56a2.42,2.42,0,0,1,1.436-.76,21.981,21.981,0,0,1,6.428-.03,1.534,1.534,0,0,1,1.552,1.73c0.072,0.93-.007,1.86-0.018,2.8-0.015,1.24-.045,2.49-0.032,3.74a3.152,3.152,0,0,0,.219,1.08,0.846,0.846,0,0,0,1.478.35,12.211,12.211,0,0,0,2.355-2.89,29.425,29.425,0,0,0,2.615-4.99,1.269,1.269,0,0,1,1.569-1.03c1.991-.01,3.983-0.05,5.974-0.06a3.491,3.491,0,0,1,.912.12,0.777,0.777,0,0,1,.644,1.03,5.864,5.864,0,0,1-1.079,2.35c-1.294,1.8-2.64,3.56-3.96,5.33-0.3.4-.6,0.8-0.854,1.22a1.454,1.454,0,0,0,.238,1.97c0.869,0.87,1.781,1.7,2.662,2.55a16.184,16.184,0,0,1,2.58,3.05,3.324,3.324,0,0,1,.334.76,1.093,1.093,0,0,1-1.129,1.52c-0.834.08-1.679,0.06-2.52,0.08-1.088.03-2.176,0.07-3.264,0.07a3.775,3.775,0,0,1-2.447-.9c-0.753-.63-1.419-1.36-2.121-2.05-0.511-.51-1.014-1.02-1.533-1.51a1.878,1.878,0,0,0-.489-0.32,0.936,0.936,0,0,0-1.184.16,3.227,3.227,0,0,0-.937,2.2c-0.045.36-.041,0.72-0.065,1.08a1.134,1.134,0,0,1-1.159,1.2,13.8,13.8,0,0,1-9.164-1.99,20.055,20.055,0,0,1-4.722-4.52,59.978,59.978,0,0,1-7.009-12.01c-0.049-.1-0.1-0.21-0.151-0.31v-0.51Z" transform="translate(-474 -5368)"/>
</svg>
